<svg xmlns="http://www.w3.org/2000/svg" xmlns:xlink="http://www.w3.org/1999/xlink" width="1920" zoomAndPan="magnify" viewBox="0 0 1440 809.999993" height="1080" preserveAspectRatio="xMidYMid meet" version="1.0"><defs><clipPath id="2bd5937980"><path d="M 554.777344 67.960938 L 604.980469 67.960938 L 604.980469 605.621094 L 554.777344 605.621094 Z M 554.777344 67.960938 " clip-rule="nonzero"/></clipPath><clipPath id="0a8cdc2991"><path d="M 0.777344 0.960938 L 50.980469 0.960938 L 50.980469 538.621094 L 0.777344 538.621094 Z M 0.777344 0.960938 " clip-rule="nonzero"/></clipPath><clipPath id="9ab6ac8bac"><rect x="0" width="51" y="0" height="539"/></clipPath><clipPath id="7dcd606e20"><path d="M 630.855469 67.960938 L 680.75 67.960938 L 680.75 605.621094 L 630.855469 605.621094 Z M 630.855469 67.960938 " clip-rule="nonzero"/></clipPath><clipPath id="299ad249cd"><path d="M 0.855469 0.960938 L 50.75 0.960938 L 50.75 538.621094 L 0.855469 538.621094 Z M 0.855469 0.960938 " clip-rule="nonzero"/></clipPath><clipPath id="e8e67aaec0"><rect x="0" width="51" y="0" height="539"/></clipPath><clipPath id="242324e2d9"><path d="M 706.625 67.960938 L 756.714844 67.960938 L 756.714844 605.621094 L 706.625 605.621094 Z M 706.625 67.960938 " clip-rule="nonzero"/></clipPath><clipPath id="669f150d5f"><path d="M 0.625 0.960938 L 50.714844 0.960938 L 50.714844 538.621094 L 0.625 538.621094 Z M 0.625 0.960938 " clip-rule="nonzero"/></clipPath><clipPath id="5b986f3a23"><rect x="0" width="51" y="0" height="539"/></clipPath><clipPath id="1ae9f593a2"><path d="M 782.589844 67.960938 L 832.679688 67.960938 L 832.679688 605.621094 L 782.589844 605.621094 Z M 782.589844 67.960938 " clip-rule="nonzero"/></clipPath><clipPath id="1921258ae2"><path d="M 0.589844 0.960938 L 50.679688 0.960938 L 50.679688 538.621094 L 0.589844 538.621094 Z M 0.589844 0.960938 " clip-rule="nonzero"/></clipPath><clipPath id="b7ffeedc5c"><rect x="0" width="51" y="0" height="539"/></clipPath><clipPath id="d5ecd3cf73"><path d="M 858.554688 67.960938 L 907.894531 67.960938 L 907.894531 605.621094 L 858.554688 605.621094 Z M 858.554688 67.960938 " clip-rule="nonzero"/></clipPath><clipPath id="81beb7d237"><path d="M 0.554688 0.960938 L 49.894531 0.960938 L 49.894531 538.621094 L 0.554688 538.621094 Z M 0.554688 0.960938 " clip-rule="nonzero"/></clipPath><clipPath id="37b8fccd5d"><rect x="0" width="50" y="0" height="539"/></clipPath><clipPath id="d98afb171f"><path d="M 396.339844 22.695312 L 1066.050781 22.695312 L 1066.050781 59.710938 L 396.339844 59.710938 Z M 396.339844 22.695312 " clip-rule="nonzero"/></clipPath><clipPath id="a943853e56"><path d="M 0.339844 0.695312 L 670.050781 0.695312 L 670.050781 37.710938 L 0.339844 37.710938 Z M 0.339844 0.695312 " clip-rule="nonzero"/></clipPath><clipPath id="5fbbce6ead"><rect x="0" width="671" y="0" height="38"/></clipPath><clipPath id="03022fbfa8"><path d="M 396.339844 22.695312 L 423.671875 22.695312 L 423.671875 170.398438 L 396.339844 170.398438 Z M 396.339844 22.695312 " clip-rule="nonzero"/></clipPath><clipPath id="1dfc0b01bc"><path d="M 0.339844 0.695312 L 27.671875 0.695312 L 27.671875 148.398438 L 0.339844 148.398438 Z M 0.339844 0.695312 " clip-rule="nonzero"/></clipPath><clipPath id="41e30dd630"><rect x="0" width="28" y="0" height="149"/></clipPath><clipPath id="43e194d812"><path d="M 1028.179688 25.957031 L 1066.105469 25.957031 L 1066.105469 170.398438 L 1028.179688 170.398438 Z M 1028.179688 25.957031 " clip-rule="nonzero"/></clipPath><clipPath id="77937e603e"><path d="M 0.179688 0.957031 L 38.105469 0.957031 L 38.105469 145.398438 L 0.179688 145.398438 Z M 0.179688 0.957031 " clip-rule="nonzero"/></clipPath><clipPath id="dcffc41f8f"><rect x="0" width="39" y="0" height="146"/></clipPath><clipPath id="32ecedd7d6"><path d="M 396.335938 128.019531 L 524.914062 128.019531 L 524.914062 170.402344 L 396.335938 170.402344 Z M 396.335938 128.019531 " clip-rule="nonzero"/></clipPath><clipPath id="7ed47b7abe"><path d="M 0.335938 0.0195312 L 128.914062 0.0195312 L 128.914062 42.402344 L 0.335938 42.402344 Z M 0.335938 0.0195312 " clip-rule="nonzero"/></clipPath><clipPath id="f0876017a4"><rect x="0" width="129" y="0" height="43"/></clipPath><clipPath id="fdd24e445a"><path d="M 937.753906 128.019531 L 1066.332031 128.019531 L 1066.332031 170.402344 L 937.753906 170.402344 Z M 937.753906 128.019531 " clip-rule="nonzero"/></clipPath><clipPath id="c440c9fb3b"><path d="M 0.753906 0.0195312 L 129.332031 0.0195312 L 129.332031 42.402344 L 0.753906 42.402344 Z M 0.753906 0.0195312 " clip-rule="nonzero"/></clipPath><clipPath id="3fa3f4820e"><rect x="0" width="130" y="0" height="43"/></clipPath><clipPath id="af447c1141"><path d="M 499.050781 67.957031 L 529.277344 67.957031 L 529.277344 169.269531 L 499.050781 169.269531 Z M 499.050781 67.957031 " clip-rule="nonzero"/></clipPath><clipPath id="ad112d8d68"><path d="M 0.0507812 0.957031 L 30.277344 0.957031 L 30.277344 102.269531 L 0.0507812 102.269531 Z M 0.0507812 0.957031 " clip-rule="nonzero"/></clipPath><clipPath id="55e8a66321"><rect x="0" width="31" y="0" height="103"/></clipPath><clipPath id="8c6ecde8ef"><path d="M 937.753906 69.082031 L 967.964844 69.082031 L 967.964844 170.394531 L 937.753906 170.394531 Z M 937.753906 69.082031 " clip-rule="nonzero"/></clipPath><clipPath id="8b00da8d90"><path d="M 0.753906 0.0820312 L 30.964844 0.0820312 L 30.964844 101.394531 L 0.753906 101.394531 Z M 0.753906 0.0820312 " clip-rule="nonzero"/></clipPath><clipPath id="f60083797e"><rect x="0" width="31" y="0" height="102"/></clipPath><clipPath id="cc4f7320a1"><path d="M 446.492188 67.960938 L 524.917969 67.960938 L 524.917969 94.914062 L 446.492188 94.914062 Z M 446.492188 67.960938 " clip-rule="nonzero"/></clipPath><clipPath id="1793ce5e79"><path d="M 0.492188 0.960938 L 78.917969 0.960938 L 78.917969 27.914062 L 0.492188 27.914062 Z M 0.492188 0.960938 " clip-rule="nonzero"/></clipPath><clipPath id="3dbd4187fa"><rect x="0" width="79" y="0" height="28"/></clipPath><clipPath id="346aeb7711"><path d="M 939.226562 67.957031 L 1017.675781 67.957031 L 1017.675781 94.914062 L 939.226562 94.914062 Z M 939.226562 67.957031 " clip-rule="nonzero"/></clipPath><clipPath id="ed1b4a5b01"><path d="M 0.226562 0.957031 L 78.675781 0.957031 L 78.675781 27.914062 L 0.226562 27.914062 Z M 0.226562 0.957031 " clip-rule="nonzero"/></clipPath><clipPath id="a383855a77"><rect x="0" width="79" y="0" height="28"/></clipPath><clipPath id="61c543bc39"><path d="M 446.496094 73.410156 L 482.71875 73.410156 L 482.71875 119.679688 L 446.496094 119.679688 Z M 446.496094 73.410156 " clip-rule="nonzero"/></clipPath><clipPath id="dd53003b9d"><path d="M 0.496094 0.410156 L 36.71875 0.410156 L 36.71875 46.679688 L 0.496094 46.679688 Z M 0.496094 0.410156 " clip-rule="nonzero"/></clipPath><clipPath id="76cc8fdf46"><rect x="0" width="37" y="0" height="47"/></clipPath><clipPath id="5887d920e8"><path d="M 981.46875 73.410156 L 1017.679688 73.410156 L 1017.679688 119.679688 L 981.46875 119.679688 Z M 981.46875 73.410156 " clip-rule="nonzero"/></clipPath><clipPath id="50dc6e9ebb"><path d="M 0.46875 0.410156 L 36.679688 0.410156 L 36.679688 46.679688 L 0.46875 46.679688 Z M 0.46875 0.410156 " clip-rule="nonzero"/></clipPath><clipPath id="360176499a"><rect x="0" width="37" y="0" height="47"/></clipPath><clipPath id="4340bc7ed1"><path d="M 396.339844 22.695312 L 434.289062 22.695312 L 434.289062 167.136719 L 396.339844 167.136719 Z M 396.339844 22.695312 " clip-rule="nonzero"/></clipPath><clipPath id="7cc6892f13"><path d="M 0.339844 0.695312 L 38.289062 0.695312 L 38.289062 145.136719 L 0.339844 145.136719 Z M 0.339844 0.695312 " clip-rule="nonzero"/></clipPath><clipPath id="bd42a99347"><rect x="0" width="39" y="0" height="146"/></clipPath></defs><rect x="-144" width="1728" fill="#ffffff" y="-80.999999" height="971.999992" fill-opacity="1"/><rect x="-144" width="1728" fill="#ffffff" y="-80.999999" height="971.999992" fill-opacity="1"/><g clip-path="url(#2bd5937980)"><g transform="matrix(1, 0, 0, 1, 554, 67)"><g clip-path="url(#9ab6ac8bac)"><g clip-path="url(#0a8cdc2991)"><path fill="#ffffff" d="M 0.777344 0.960938 L 50.980469 0.960938 L 50.980469 538.667969 L 0.777344 538.667969 Z M 0.777344 0.960938 " fill-opacity="1" fill-rule="nonzero"/></g></g></g></g><g clip-path="url(#7dcd606e20)"><g transform="matrix(1, 0, 0, 1, 630, 67)"><g clip-path="url(#e8e67aaec0)"><g clip-path="url(#299ad249cd)"><path fill="#ffffff" d="M 0.855469 0.960938 L 50.75 0.960938 L 50.75 538.6875 L 0.855469 538.6875 Z M 0.855469 0.960938 " fill-opacity="1" fill-rule="nonzero"/></g></g></g></g><g clip-path="url(#242324e2d9)"><g transform="matrix(1, 0, 0, 1, 706, 67)"><g clip-path="url(#5b986f3a23)"><g clip-path="url(#669f150d5f)"><path fill="#ffffff" d="M 0.625 0.960938 L 50.714844 0.960938 L 50.714844 538.652344 L 0.625 538.652344 Z M 0.625 0.960938 " fill-opacity="1" fill-rule="nonzero"/></g></g></g></g><g clip-path="url(#1ae9f593a2)"><g transform="matrix(1, 0, 0, 1, 782, 67)"><g clip-path="url(#b7ffeedc5c)"><g clip-path="url(#1921258ae2)"><path fill="#ffffff" d="M 0.589844 0.960938 L 50.679688 0.960938 L 50.679688 538.652344 L 0.589844 538.652344 Z M 0.589844 0.960938 " fill-opacity="1" fill-rule="nonzero"/></g></g></g></g><g clip-path="url(#d5ecd3cf73)"><g transform="matrix(1, 0, 0, 1, 858, 67)"><g clip-path="url(#37b8fccd5d)"><g clip-path="url(#81beb7d237)"><path fill="#ffffff" d="M 0.554688 0.960938 L 49.894531 0.960938 L 49.894531 538.699219 L 0.554688 538.699219 Z M 0.554688 0.960938 " fill-opacity="1" fill-rule="nonzero"/></g></g></g></g><g clip-path="url(#d98afb171f)"><g transform="matrix(1, 0, 0, 1, 396, 22)"><g clip-path="url(#5fbbce6ead)"><g clip-path="url(#a943853e56)"><path fill="#ffffff" d="M 0.339844 0.695312 L 670.113281 0.695312 L 670.113281 37.710938 L 0.339844 37.710938 Z M 0.339844 0.695312 " fill-opacity="1" fill-rule="nonzero"/></g></g></g></g><g clip-path="url(#03022fbfa8)"><g transform="matrix(1, 0, 0, 1, 396, 22)"><g clip-path="url(#41e30dd630)"><g clip-path="url(#1dfc0b01bc)"><path fill="#fcdf68" d="M 0.339844 0.695312 L 27.671875 0.695312 L 27.671875 148.355469 L 0.339844 148.355469 Z M 0.339844 0.695312 " fill-opacity="1" fill-rule="nonzero"/></g></g></g></g><g clip-path="url(#43e194d812)"><g transform="matrix(1, 0, 0, 1, 1028, 25)"><g clip-path="url(#dcffc41f8f)"><g clip-path="url(#77937e603e)"><path fill="#ffffff" d="M 0.179688 0.957031 L 38.105469 0.957031 L 38.105469 145.398438 L 0.179688 145.398438 Z M 0.179688 0.957031 " fill-opacity="1" fill-rule="nonzero"/></g></g></g></g><g clip-path="url(#32ecedd7d6)"><g transform="matrix(1, 0, 0, 1, 396, 128)"><g clip-path="url(#f0876017a4)"><g clip-path="url(#7ed47b7abe)"><path fill="#ffffff" d="M 128.914062 0.0195312 L 128.914062 42.402344 L 0.285156 42.402344 L 0.285156 0.0195312 Z M 128.914062 0.0195312 " fill-opacity="1" fill-rule="nonzero"/></g></g></g></g><g clip-path="url(#fdd24e445a)"><g transform="matrix(1, 0, 0, 1, 937, 128)"><g clip-path="url(#3fa3f4820e)"><g clip-path="url(#c440c9fb3b)"><path fill="#ffffff" d="M 129.332031 0.0195312 L 129.332031 42.402344 L 0.703125 42.402344 L 0.703125 0.0195312 Z M 129.332031 0.0195312 " fill-opacity="1" fill-rule="nonzero"/></g></g></g></g><g clip-path="url(#af447c1141)"><g transform="matrix(1, 0, 0, 1, 499, 67)"><g clip-path="url(#55e8a66321)"><g clip-path="url(#ad112d8d68)"><path fill="#ffffff" d="M 30.277344 102.269531 L 0.0507812 102.269531 L 0.0507812 0.96875 L 30.277344 0.96875 Z M 30.277344 102.269531 " fill-opacity="1" fill-rule="nonzero"/></g></g></g></g><g clip-path="url(#8c6ecde8ef)"><g transform="matrix(1, 0, 0, 1, 937, 69)"><g clip-path="url(#f60083797e)"><g clip-path="url(#8b00da8d90)"><path fill="#ffffff" d="M 30.964844 101.394531 L 0.753906 101.394531 L 0.753906 0.136719 L 30.964844 0.136719 Z M 30.964844 101.394531 " fill-opacity="1" fill-rule="nonzero"/></g></g></g></g><g clip-path="url(#cc4f7320a1)"><g transform="matrix(1, 0, 0, 1, 446, 67)"><g clip-path="url(#3dbd4187fa)"><g clip-path="url(#1793ce5e79)"><path fill="#ffffff" d="M 78.917969 0.960938 L 78.917969 27.914062 L 0.472656 27.914062 L 0.472656 0.960938 Z M 78.917969 0.960938 " fill-opacity="1" fill-rule="nonzero"/></g></g></g></g><g clip-path="url(#346aeb7711)"><g transform="matrix(1, 0, 0, 1, 939, 67)"><g clip-path="url(#a383855a77)"><g clip-path="url(#ed1b4a5b01)"><path fill="#ffffff" d="M 78.675781 0.957031 L 78.675781 27.914062 L 0.234375 27.914062 L 0.234375 0.957031 Z M 78.675781 0.957031 " fill-opacity="1" fill-rule="nonzero"/></g></g></g></g><g clip-path="url(#61c543bc39)"><g transform="matrix(1, 0, 0, 1, 446, 73)"><g clip-path="url(#76cc8fdf46)"><g clip-path="url(#dd53003b9d)"><path fill="#ffffff" d="M 0.496094 0.410156 L 36.71875 0.410156 L 36.71875 46.683594 L 0.496094 46.683594 Z M 0.496094 0.410156 " fill-opacity="1" fill-rule="nonzero"/></g></g></g></g><g clip-path="url(#5887d920e8)"><g transform="matrix(1, 0, 0, 1, 981, 73)"><g clip-path="url(#360176499a)"><g clip-path="url(#50dc6e9ebb)"><path fill="#ffffff" d="M 0.46875 0.410156 L 36.679688 0.410156 L 36.679688 46.667969 L 0.46875 46.667969 Z M 0.46875 0.410156 " fill-opacity="1" fill-rule="nonzero"/></g></g></g></g><g clip-path="url(#4340bc7ed1)"><g transform="matrix(1, 0, 0, 1, 396, 22)"><g clip-path="url(#bd42a99347)"><g clip-path="url(#7cc6892f13)"><path fill="#ffffff" d="M 0.339844 0.695312 L 38.289062 0.695312 L 38.289062 145.082031 L 0.339844 145.082031 Z M 0.339844 0.695312 " fill-opacity="1" fill-rule="nonzero"/></g></g></g></g></svg>