<svg xmlns="http://www.w3.org/2000/svg" xmlns:xlink="http://www.w3.org/1999/xlink" width="1920" zoomAndPan="magnify" viewBox="0 0 1440 809.999993" height="1080" preserveAspectRatio="xMidYMid meet" version="1.0"><defs><clipPath id="6860a59ed5"><path d="M 554.777344 67.960938 L 604.980469 67.960938 L 604.980469 605.621094 L 554.777344 605.621094 Z M 554.777344 67.960938 " clip-rule="nonzero"/></clipPath><clipPath id="d0a9c75b78"><path d="M 0.777344 0.960938 L 50.980469 0.960938 L 50.980469 538.621094 L 0.777344 538.621094 Z M 0.777344 0.960938 " clip-rule="nonzero"/></clipPath><clipPath id="7168eeda97"><rect x="0" width="51" y="0" height="539"/></clipPath><clipPath id="3bcbca2a3c"><path d="M 630.855469 67.960938 L 680.75 67.960938 L 680.75 605.621094 L 630.855469 605.621094 Z M 630.855469 67.960938 " clip-rule="nonzero"/></clipPath><clipPath id="803e7837de"><path d="M 0.855469 0.960938 L 50.75 0.960938 L 50.75 538.621094 L 0.855469 538.621094 Z M 0.855469 0.960938 " clip-rule="nonzero"/></clipPath><clipPath id="157868b9c2"><rect x="0" width="51" y="0" height="539"/></clipPath><clipPath id="b626840275"><path d="M 706.625 67.960938 L 756.714844 67.960938 L 756.714844 605.621094 L 706.625 605.621094 Z M 706.625 67.960938 " clip-rule="nonzero"/></clipPath><clipPath id="a29f99d072"><path d="M 0.625 0.960938 L 50.714844 0.960938 L 50.714844 538.621094 L 0.625 538.621094 Z M 0.625 0.960938 " clip-rule="nonzero"/></clipPath><clipPath id="9c7dede637"><rect x="0" width="51" y="0" height="539"/></clipPath><clipPath id="894c0b701b"><path d="M 782.589844 67.960938 L 832.679688 67.960938 L 832.679688 605.621094 L 782.589844 605.621094 Z M 782.589844 67.960938 " clip-rule="nonzero"/></clipPath><clipPath id="adb121a5cc"><path d="M 0.589844 0.960938 L 50.679688 0.960938 L 50.679688 538.621094 L 0.589844 538.621094 Z M 0.589844 0.960938 " clip-rule="nonzero"/></clipPath><clipPath id="8cf28dc3b5"><rect x="0" width="51" y="0" height="539"/></clipPath><clipPath id="2a9f212648"><path d="M 858.554688 67.960938 L 907.894531 67.960938 L 907.894531 605.621094 L 858.554688 605.621094 Z M 858.554688 67.960938 " clip-rule="nonzero"/></clipPath><clipPath id="c13564caa2"><path d="M 0.554688 0.960938 L 49.894531 0.960938 L 49.894531 538.621094 L 0.554688 538.621094 Z M 0.554688 0.960938 " clip-rule="nonzero"/></clipPath><clipPath id="dd2b87e4b3"><rect x="0" width="50" y="0" height="539"/></clipPath><clipPath id="795f0c033d"><path d="M 396.339844 22.695312 L 1066.050781 22.695312 L 1066.050781 59.710938 L 396.339844 59.710938 Z M 396.339844 22.695312 " clip-rule="nonzero"/></clipPath><clipPath id="727338770d"><path d="M 0.339844 0.695312 L 670.050781 0.695312 L 670.050781 37.710938 L 0.339844 37.710938 Z M 0.339844 0.695312 " clip-rule="nonzero"/></clipPath><clipPath id="f1a0040f36"><rect x="0" width="671" y="0" height="38"/></clipPath><clipPath id="b451b8ce70"><path d="M 396.339844 22.695312 L 423.671875 22.695312 L 423.671875 170.398438 L 396.339844 170.398438 Z M 396.339844 22.695312 " clip-rule="nonzero"/></clipPath><clipPath id="5d21b7dcd3"><path d="M 0.339844 0.695312 L 27.671875 0.695312 L 27.671875 148.398438 L 0.339844 148.398438 Z M 0.339844 0.695312 " clip-rule="nonzero"/></clipPath><clipPath id="5ba5903945"><rect x="0" width="28" y="0" height="149"/></clipPath><clipPath id="7c22ec04db"><path d="M 1028.179688 25.957031 L 1066.105469 25.957031 L 1066.105469 170.398438 L 1028.179688 170.398438 Z M 1028.179688 25.957031 " clip-rule="nonzero"/></clipPath><clipPath id="99bdf74833"><path d="M 0.179688 0.957031 L 38.105469 0.957031 L 38.105469 145.398438 L 0.179688 145.398438 Z M 0.179688 0.957031 " clip-rule="nonzero"/></clipPath><clipPath id="ef0db2bbfb"><rect x="0" width="39" y="0" height="146"/></clipPath><clipPath id="5081fed713"><path d="M 396.335938 128.019531 L 524.914062 128.019531 L 524.914062 170.402344 L 396.335938 170.402344 Z M 396.335938 128.019531 " clip-rule="nonzero"/></clipPath><clipPath id="6472f7dcbe"><path d="M 0.335938 0.0195312 L 128.914062 0.0195312 L 128.914062 42.402344 L 0.335938 42.402344 Z M 0.335938 0.0195312 " clip-rule="nonzero"/></clipPath><clipPath id="df2bb008ca"><rect x="0" width="129" y="0" height="43"/></clipPath><clipPath id="6422dd5127"><path d="M 937.753906 128.019531 L 1066.332031 128.019531 L 1066.332031 170.402344 L 937.753906 170.402344 Z M 937.753906 128.019531 " clip-rule="nonzero"/></clipPath><clipPath id="75aea67e7f"><path d="M 0.753906 0.0195312 L 129.332031 0.0195312 L 129.332031 42.402344 L 0.753906 42.402344 Z M 0.753906 0.0195312 " clip-rule="nonzero"/></clipPath><clipPath id="bdb671eee2"><rect x="0" width="130" y="0" height="43"/></clipPath><clipPath id="d7f3b335ac"><path d="M 499.050781 67.957031 L 529.277344 67.957031 L 529.277344 169.269531 L 499.050781 169.269531 Z M 499.050781 67.957031 " clip-rule="nonzero"/></clipPath><clipPath id="715219ea9a"><path d="M 0.0507812 0.957031 L 30.277344 0.957031 L 30.277344 102.269531 L 0.0507812 102.269531 Z M 0.0507812 0.957031 " clip-rule="nonzero"/></clipPath><clipPath id="836cee5156"><rect x="0" width="31" y="0" height="103"/></clipPath><clipPath id="d0ec9aec92"><path d="M 937.753906 69.082031 L 967.964844 69.082031 L 967.964844 170.394531 L 937.753906 170.394531 Z M 937.753906 69.082031 " clip-rule="nonzero"/></clipPath><clipPath id="e5fcb4db0e"><path d="M 0.753906 0.0820312 L 30.964844 0.0820312 L 30.964844 101.394531 L 0.753906 101.394531 Z M 0.753906 0.0820312 " clip-rule="nonzero"/></clipPath><clipPath id="1ccde13181"><rect x="0" width="31" y="0" height="102"/></clipPath><clipPath id="3b8a30ac51"><path d="M 446.492188 67.960938 L 524.917969 67.960938 L 524.917969 94.914062 L 446.492188 94.914062 Z M 446.492188 67.960938 " clip-rule="nonzero"/></clipPath><clipPath id="128f6187ee"><path d="M 0.492188 0.960938 L 78.917969 0.960938 L 78.917969 27.914062 L 0.492188 27.914062 Z M 0.492188 0.960938 " clip-rule="nonzero"/></clipPath><clipPath id="24e90b251b"><rect x="0" width="79" y="0" height="28"/></clipPath><clipPath id="a7df28ec34"><path d="M 939.226562 67.957031 L 1017.675781 67.957031 L 1017.675781 94.914062 L 939.226562 94.914062 Z M 939.226562 67.957031 " clip-rule="nonzero"/></clipPath><clipPath id="50c0892338"><path d="M 0.226562 0.957031 L 78.675781 0.957031 L 78.675781 27.914062 L 0.226562 27.914062 Z M 0.226562 0.957031 " clip-rule="nonzero"/></clipPath><clipPath id="bd0df45546"><rect x="0" width="79" y="0" height="28"/></clipPath><clipPath id="8c54f153bc"><path d="M 446.496094 73.410156 L 482.71875 73.410156 L 482.71875 119.679688 L 446.496094 119.679688 Z M 446.496094 73.410156 " clip-rule="nonzero"/></clipPath><clipPath id="1e4e46a7d5"><path d="M 0.496094 0.410156 L 36.71875 0.410156 L 36.71875 46.679688 L 0.496094 46.679688 Z M 0.496094 0.410156 " clip-rule="nonzero"/></clipPath><clipPath id="182e101f3d"><rect x="0" width="37" y="0" height="47"/></clipPath><clipPath id="2062957ad2"><path d="M 981.46875 73.410156 L 1017.679688 73.410156 L 1017.679688 119.679688 L 981.46875 119.679688 Z M 981.46875 73.410156 " clip-rule="nonzero"/></clipPath><clipPath id="212c50987f"><path d="M 0.46875 0.410156 L 36.679688 0.410156 L 36.679688 46.679688 L 0.46875 46.679688 Z M 0.46875 0.410156 " clip-rule="nonzero"/></clipPath><clipPath id="1c0594e7ec"><rect x="0" width="37" y="0" height="47"/></clipPath><clipPath id="2bcd59844e"><path d="M 396.339844 22.695312 L 434.289062 22.695312 L 434.289062 167.136719 L 396.339844 167.136719 Z M 396.339844 22.695312 " clip-rule="nonzero"/></clipPath><clipPath id="971a763bf5"><path d="M 0.339844 0.695312 L 38.289062 0.695312 L 38.289062 145.136719 L 0.339844 145.136719 Z M 0.339844 0.695312 " clip-rule="nonzero"/></clipPath><clipPath id="7f07913d33"><rect x="0" width="39" y="0" height="146"/></clipPath></defs><rect x="-144" width="1728" fill="#ffffff" y="-80.999999" height="971.999992" fill-opacity="1"/><rect x="-144" width="1728" fill="#ffffff" y="-80.999999" height="971.999992" fill-opacity="1"/><g clip-path="url(#6860a59ed5)"><g transform="matrix(1, 0, 0, 1, 554, 67)"><g clip-path="url(#7168eeda97)"><g clip-path="url(#d0a9c75b78)"><path fill="#fdb436" d="M 0.777344 0.960938 L 50.980469 0.960938 L 50.980469 538.667969 L 0.777344 538.667969 Z M 0.777344 0.960938 " fill-opacity="1" fill-rule="nonzero"/></g></g></g></g><g clip-path="url(#3bcbca2a3c)"><g transform="matrix(1, 0, 0, 1, 630, 67)"><g clip-path="url(#157868b9c2)"><g clip-path="url(#803e7837de)"><path fill="#fdb436" d="M 0.855469 0.960938 L 50.75 0.960938 L 50.75 538.6875 L 0.855469 538.6875 Z M 0.855469 0.960938 " fill-opacity="1" fill-rule="nonzero"/></g></g></g></g><g clip-path="url(#b626840275)"><g transform="matrix(1, 0, 0, 1, 706, 67)"><g clip-path="url(#9c7dede637)"><g clip-path="url(#a29f99d072)"><path fill="#fdb436" d="M 0.625 0.960938 L 50.714844 0.960938 L 50.714844 538.652344 L 0.625 538.652344 Z M 0.625 0.960938 " fill-opacity="1" fill-rule="nonzero"/></g></g></g></g><g clip-path="url(#894c0b701b)"><g transform="matrix(1, 0, 0, 1, 782, 67)"><g clip-path="url(#8cf28dc3b5)"><g clip-path="url(#adb121a5cc)"><path fill="#fdb436" d="M 0.589844 0.960938 L 50.679688 0.960938 L 50.679688 538.652344 L 0.589844 538.652344 Z M 0.589844 0.960938 " fill-opacity="1" fill-rule="nonzero"/></g></g></g></g><g clip-path="url(#2a9f212648)"><g transform="matrix(1, 0, 0, 1, 858, 67)"><g clip-path="url(#dd2b87e4b3)"><g clip-path="url(#c13564caa2)"><path fill="#fdb436" d="M 0.554688 0.960938 L 49.894531 0.960938 L 49.894531 538.699219 L 0.554688 538.699219 Z M 0.554688 0.960938 " fill-opacity="1" fill-rule="nonzero"/></g></g></g></g><g clip-path="url(#795f0c033d)"><g transform="matrix(1, 0, 0, 1, 396, 22)"><g clip-path="url(#f1a0040f36)"><g clip-path="url(#727338770d)"><path fill="#fdb436" d="M 0.339844 0.695312 L 670.113281 0.695312 L 670.113281 37.710938 L 0.339844 37.710938 Z M 0.339844 0.695312 " fill-opacity="1" fill-rule="nonzero"/></g></g></g></g><g clip-path="url(#b451b8ce70)"><g transform="matrix(1, 0, 0, 1, 396, 22)"><g clip-path="url(#5ba5903945)"><g clip-path="url(#5d21b7dcd3)"><path fill="#fcdf68" d="M 0.339844 0.695312 L 27.671875 0.695312 L 27.671875 148.355469 L 0.339844 148.355469 Z M 0.339844 0.695312 " fill-opacity="1" fill-rule="nonzero"/></g></g></g></g><g clip-path="url(#7c22ec04db)"><g transform="matrix(1, 0, 0, 1, 1028, 25)"><g clip-path="url(#ef0db2bbfb)"><g clip-path="url(#99bdf74833)"><path fill="#fdb436" d="M 0.179688 0.957031 L 38.105469 0.957031 L 38.105469 145.398438 L 0.179688 145.398438 Z M 0.179688 0.957031 " fill-opacity="1" fill-rule="nonzero"/></g></g></g></g><g clip-path="url(#5081fed713)"><g transform="matrix(1, 0, 0, 1, 396, 128)"><g clip-path="url(#df2bb008ca)"><g clip-path="url(#6472f7dcbe)"><path fill="#fdb436" d="M 128.914062 0.0195312 L 128.914062 42.402344 L 0.285156 42.402344 L 0.285156 0.0195312 Z M 128.914062 0.0195312 " fill-opacity="1" fill-rule="nonzero"/></g></g></g></g><g clip-path="url(#6422dd5127)"><g transform="matrix(1, 0, 0, 1, 937, 128)"><g clip-path="url(#bdb671eee2)"><g clip-path="url(#75aea67e7f)"><path fill="#fdb436" d="M 129.332031 0.0195312 L 129.332031 42.402344 L 0.703125 42.402344 L 0.703125 0.0195312 Z M 129.332031 0.0195312 " fill-opacity="1" fill-rule="nonzero"/></g></g></g></g><g clip-path="url(#d7f3b335ac)"><g transform="matrix(1, 0, 0, 1, 499, 67)"><g clip-path="url(#836cee5156)"><g clip-path="url(#715219ea9a)"><path fill="#fdb436" d="M 30.277344 102.269531 L 0.0507812 102.269531 L 0.0507812 0.96875 L 30.277344 0.96875 Z M 30.277344 102.269531 " fill-opacity="1" fill-rule="nonzero"/></g></g></g></g><g clip-path="url(#d0ec9aec92)"><g transform="matrix(1, 0, 0, 1, 937, 69)"><g clip-path="url(#1ccde13181)"><g clip-path="url(#e5fcb4db0e)"><path fill="#fdb436" d="M 30.964844 101.394531 L 0.753906 101.394531 L 0.753906 0.136719 L 30.964844 0.136719 Z M 30.964844 101.394531 " fill-opacity="1" fill-rule="nonzero"/></g></g></g></g><g clip-path="url(#3b8a30ac51)"><g transform="matrix(1, 0, 0, 1, 446, 67)"><g clip-path="url(#24e90b251b)"><g clip-path="url(#128f6187ee)"><path fill="#fdb436" d="M 78.917969 0.960938 L 78.917969 27.914062 L 0.472656 27.914062 L 0.472656 0.960938 Z M 78.917969 0.960938 " fill-opacity="1" fill-rule="nonzero"/></g></g></g></g><g clip-path="url(#a7df28ec34)"><g transform="matrix(1, 0, 0, 1, 939, 67)"><g clip-path="url(#bd0df45546)"><g clip-path="url(#50c0892338)"><path fill="#fdb436" d="M 78.675781 0.957031 L 78.675781 27.914062 L 0.234375 27.914062 L 0.234375 0.957031 Z M 78.675781 0.957031 " fill-opacity="1" fill-rule="nonzero"/></g></g></g></g><g clip-path="url(#8c54f153bc)"><g transform="matrix(1, 0, 0, 1, 446, 73)"><g clip-path="url(#182e101f3d)"><g clip-path="url(#1e4e46a7d5)"><path fill="#fdb436" d="M 0.496094 0.410156 L 36.71875 0.410156 L 36.71875 46.683594 L 0.496094 46.683594 Z M 0.496094 0.410156 " fill-opacity="1" fill-rule="nonzero"/></g></g></g></g><g clip-path="url(#2062957ad2)"><g transform="matrix(1, 0, 0, 1, 981, 73)"><g clip-path="url(#1c0594e7ec)"><g clip-path="url(#212c50987f)"><path fill="#fdb436" d="M 0.46875 0.410156 L 36.679688 0.410156 L 36.679688 46.667969 L 0.46875 46.667969 Z M 0.46875 0.410156 " fill-opacity="1" fill-rule="nonzero"/></g></g></g></g><g clip-path="url(#2bcd59844e)"><g transform="matrix(1, 0, 0, 1, 396, 22)"><g clip-path="url(#7f07913d33)"><g clip-path="url(#971a763bf5)"><path fill="#fdb436" d="M 0.339844 0.695312 L 38.289062 0.695312 L 38.289062 145.082031 L 0.339844 145.082031 Z M 0.339844 0.695312 " fill-opacity="1" fill-rule="nonzero"/></g></g></g></g></svg>