<svg xmlns="http://www.w3.org/2000/svg" xmlns:xlink="http://www.w3.org/1999/xlink" width="1920" zoomAndPan="magnify" viewBox="0 0 1440 809.999993" height="1080" preserveAspectRatio="xMidYMid meet" version="1.0"><defs><clipPath id="ebc2e82640"><path d="M 554.777344 67.960938 L 604.980469 67.960938 L 604.980469 605.621094 L 554.777344 605.621094 Z M 554.777344 67.960938 " clip-rule="nonzero"/></clipPath><clipPath id="6f72ec48bb"><path d="M 0.777344 0.960938 L 50.980469 0.960938 L 50.980469 538.621094 L 0.777344 538.621094 Z M 0.777344 0.960938 " clip-rule="nonzero"/></clipPath><clipPath id="48f98516ee"><rect x="0" width="51" y="0" height="539"/></clipPath><clipPath id="a890ec4cc1"><path d="M 630.855469 67.960938 L 680.75 67.960938 L 680.75 605.621094 L 630.855469 605.621094 Z M 630.855469 67.960938 " clip-rule="nonzero"/></clipPath><clipPath id="b1b6bda94c"><path d="M 0.855469 0.960938 L 50.75 0.960938 L 50.75 538.621094 L 0.855469 538.621094 Z M 0.855469 0.960938 " clip-rule="nonzero"/></clipPath><clipPath id="24651c8d3b"><rect x="0" width="51" y="0" height="539"/></clipPath><clipPath id="a3fe53b5e2"><path d="M 706.625 67.960938 L 756.714844 67.960938 L 756.714844 605.621094 L 706.625 605.621094 Z M 706.625 67.960938 " clip-rule="nonzero"/></clipPath><clipPath id="837f27fa2f"><path d="M 0.625 0.960938 L 50.714844 0.960938 L 50.714844 538.621094 L 0.625 538.621094 Z M 0.625 0.960938 " clip-rule="nonzero"/></clipPath><clipPath id="cd90c67bb9"><rect x="0" width="51" y="0" height="539"/></clipPath><clipPath id="c9a91bc210"><path d="M 782.589844 67.960938 L 832.679688 67.960938 L 832.679688 605.621094 L 782.589844 605.621094 Z M 782.589844 67.960938 " clip-rule="nonzero"/></clipPath><clipPath id="96ec553569"><path d="M 0.589844 0.960938 L 50.679688 0.960938 L 50.679688 538.621094 L 0.589844 538.621094 Z M 0.589844 0.960938 " clip-rule="nonzero"/></clipPath><clipPath id="84b8e28d0d"><rect x="0" width="51" y="0" height="539"/></clipPath><clipPath id="4d1a0303ce"><path d="M 858.554688 67.960938 L 907.894531 67.960938 L 907.894531 605.621094 L 858.554688 605.621094 Z M 858.554688 67.960938 " clip-rule="nonzero"/></clipPath><clipPath id="363e543d39"><path d="M 0.554688 0.960938 L 49.894531 0.960938 L 49.894531 538.621094 L 0.554688 538.621094 Z M 0.554688 0.960938 " clip-rule="nonzero"/></clipPath><clipPath id="d90eab8993"><rect x="0" width="50" y="0" height="539"/></clipPath><clipPath id="e05aab886e"><path d="M 396.339844 22.695312 L 1066.050781 22.695312 L 1066.050781 59.710938 L 396.339844 59.710938 Z M 396.339844 22.695312 " clip-rule="nonzero"/></clipPath><clipPath id="b225ebae4d"><path d="M 0.339844 0.695312 L 670.050781 0.695312 L 670.050781 37.710938 L 0.339844 37.710938 Z M 0.339844 0.695312 " clip-rule="nonzero"/></clipPath><clipPath id="8e4bdb1681"><rect x="0" width="671" y="0" height="38"/></clipPath><clipPath id="0cff1dfee2"><path d="M 396.339844 22.695312 L 423.671875 22.695312 L 423.671875 170.398438 L 396.339844 170.398438 Z M 396.339844 22.695312 " clip-rule="nonzero"/></clipPath><clipPath id="aed503787e"><path d="M 0.339844 0.695312 L 27.671875 0.695312 L 27.671875 148.398438 L 0.339844 148.398438 Z M 0.339844 0.695312 " clip-rule="nonzero"/></clipPath><clipPath id="d1204e3107"><rect x="0" width="28" y="0" height="149"/></clipPath><clipPath id="ceb39b1d8b"><path d="M 1028.179688 25.957031 L 1066.105469 25.957031 L 1066.105469 170.398438 L 1028.179688 170.398438 Z M 1028.179688 25.957031 " clip-rule="nonzero"/></clipPath><clipPath id="e56d484a91"><path d="M 0.179688 0.957031 L 38.105469 0.957031 L 38.105469 145.398438 L 0.179688 145.398438 Z M 0.179688 0.957031 " clip-rule="nonzero"/></clipPath><clipPath id="1a20dca9da"><rect x="0" width="39" y="0" height="146"/></clipPath><clipPath id="eb9228a6df"><path d="M 396.335938 128.019531 L 524.914062 128.019531 L 524.914062 170.402344 L 396.335938 170.402344 Z M 396.335938 128.019531 " clip-rule="nonzero"/></clipPath><clipPath id="ba4fa9bd30"><path d="M 0.335938 0.0195312 L 128.914062 0.0195312 L 128.914062 42.402344 L 0.335938 42.402344 Z M 0.335938 0.0195312 " clip-rule="nonzero"/></clipPath><clipPath id="eed6b1233e"><rect x="0" width="129" y="0" height="43"/></clipPath><clipPath id="a5bf266e45"><path d="M 937.753906 128.019531 L 1066.332031 128.019531 L 1066.332031 170.402344 L 937.753906 170.402344 Z M 937.753906 128.019531 " clip-rule="nonzero"/></clipPath><clipPath id="6d040ecd1e"><path d="M 0.753906 0.0195312 L 129.332031 0.0195312 L 129.332031 42.402344 L 0.753906 42.402344 Z M 0.753906 0.0195312 " clip-rule="nonzero"/></clipPath><clipPath id="2a5baba921"><rect x="0" width="130" y="0" height="43"/></clipPath><clipPath id="1d3ba31d30"><path d="M 499.050781 67.957031 L 529.277344 67.957031 L 529.277344 169.269531 L 499.050781 169.269531 Z M 499.050781 67.957031 " clip-rule="nonzero"/></clipPath><clipPath id="a2d9edd6de"><path d="M 0.0507812 0.957031 L 30.277344 0.957031 L 30.277344 102.269531 L 0.0507812 102.269531 Z M 0.0507812 0.957031 " clip-rule="nonzero"/></clipPath><clipPath id="d3297cdbd4"><rect x="0" width="31" y="0" height="103"/></clipPath><clipPath id="74ea77b116"><path d="M 937.753906 69.082031 L 967.964844 69.082031 L 967.964844 170.394531 L 937.753906 170.394531 Z M 937.753906 69.082031 " clip-rule="nonzero"/></clipPath><clipPath id="a983dab4d5"><path d="M 0.753906 0.0820312 L 30.964844 0.0820312 L 30.964844 101.394531 L 0.753906 101.394531 Z M 0.753906 0.0820312 " clip-rule="nonzero"/></clipPath><clipPath id="82dd7c496b"><rect x="0" width="31" y="0" height="102"/></clipPath><clipPath id="cf7ef00b42"><path d="M 446.492188 67.960938 L 524.917969 67.960938 L 524.917969 94.914062 L 446.492188 94.914062 Z M 446.492188 67.960938 " clip-rule="nonzero"/></clipPath><clipPath id="ca7e200846"><path d="M 0.492188 0.960938 L 78.917969 0.960938 L 78.917969 27.914062 L 0.492188 27.914062 Z M 0.492188 0.960938 " clip-rule="nonzero"/></clipPath><clipPath id="e05b6deee9"><rect x="0" width="79" y="0" height="28"/></clipPath><clipPath id="473e4cbb87"><path d="M 939.226562 67.957031 L 1017.675781 67.957031 L 1017.675781 94.914062 L 939.226562 94.914062 Z M 939.226562 67.957031 " clip-rule="nonzero"/></clipPath><clipPath id="74cfa3e457"><path d="M 0.226562 0.957031 L 78.675781 0.957031 L 78.675781 27.914062 L 0.226562 27.914062 Z M 0.226562 0.957031 " clip-rule="nonzero"/></clipPath><clipPath id="86589fb2e1"><rect x="0" width="79" y="0" height="28"/></clipPath><clipPath id="4cae2c67d9"><path d="M 446.496094 73.410156 L 482.71875 73.410156 L 482.71875 119.679688 L 446.496094 119.679688 Z M 446.496094 73.410156 " clip-rule="nonzero"/></clipPath><clipPath id="7d1ced30da"><path d="M 0.496094 0.410156 L 36.71875 0.410156 L 36.71875 46.679688 L 0.496094 46.679688 Z M 0.496094 0.410156 " clip-rule="nonzero"/></clipPath><clipPath id="05ac0402d5"><rect x="0" width="37" y="0" height="47"/></clipPath><clipPath id="e1eaa889a8"><path d="M 981.46875 73.410156 L 1017.679688 73.410156 L 1017.679688 119.679688 L 981.46875 119.679688 Z M 981.46875 73.410156 " clip-rule="nonzero"/></clipPath><clipPath id="e492cdfada"><path d="M 0.46875 0.410156 L 36.679688 0.410156 L 36.679688 46.679688 L 0.46875 46.679688 Z M 0.46875 0.410156 " clip-rule="nonzero"/></clipPath><clipPath id="48211a9e6b"><rect x="0" width="37" y="0" height="47"/></clipPath><clipPath id="1cb3793488"><path d="M 396.339844 22.695312 L 434.289062 22.695312 L 434.289062 167.136719 L 396.339844 167.136719 Z M 396.339844 22.695312 " clip-rule="nonzero"/></clipPath><clipPath id="c71d497a4f"><path d="M 0.339844 0.695312 L 38.289062 0.695312 L 38.289062 145.136719 L 0.339844 145.136719 Z M 0.339844 0.695312 " clip-rule="nonzero"/></clipPath><clipPath id="b1bbb5f4fb"><rect x="0" width="39" y="0" height="146"/></clipPath></defs><g clip-path="url(#ebc2e82640)"><g transform="matrix(1, 0, 0, 1, 554, 67)"><g clip-path="url(#48f98516ee)"><g clip-path="url(#6f72ec48bb)"><path fill="#ffffff" d="M 0.777344 0.960938 L 50.980469 0.960938 L 50.980469 538.667969 L 0.777344 538.667969 Z M 0.777344 0.960938 " fill-opacity="1" fill-rule="nonzero"/></g></g></g></g><g clip-path="url(#a890ec4cc1)"><g transform="matrix(1, 0, 0, 1, 630, 67)"><g clip-path="url(#24651c8d3b)"><g clip-path="url(#b1b6bda94c)"><path fill="#ffffff" d="M 0.855469 0.960938 L 50.75 0.960938 L 50.75 538.6875 L 0.855469 538.6875 Z M 0.855469 0.960938 " fill-opacity="1" fill-rule="nonzero"/></g></g></g></g><g clip-path="url(#a3fe53b5e2)"><g transform="matrix(1, 0, 0, 1, 706, 67)"><g clip-path="url(#cd90c67bb9)"><g clip-path="url(#837f27fa2f)"><path fill="#ffffff" d="M 0.625 0.960938 L 50.714844 0.960938 L 50.714844 538.652344 L 0.625 538.652344 Z M 0.625 0.960938 " fill-opacity="1" fill-rule="nonzero"/></g></g></g></g><g clip-path="url(#c9a91bc210)"><g transform="matrix(1, 0, 0, 1, 782, 67)"><g clip-path="url(#84b8e28d0d)"><g clip-path="url(#96ec553569)"><path fill="#ffffff" d="M 0.589844 0.960938 L 50.679688 0.960938 L 50.679688 538.652344 L 0.589844 538.652344 Z M 0.589844 0.960938 " fill-opacity="1" fill-rule="nonzero"/></g></g></g></g><g clip-path="url(#4d1a0303ce)"><g transform="matrix(1, 0, 0, 1, 858, 67)"><g clip-path="url(#d90eab8993)"><g clip-path="url(#363e543d39)"><path fill="#ffffff" d="M 0.554688 0.960938 L 49.894531 0.960938 L 49.894531 538.699219 L 0.554688 538.699219 Z M 0.554688 0.960938 " fill-opacity="1" fill-rule="nonzero"/></g></g></g></g><g clip-path="url(#e05aab886e)"><g transform="matrix(1, 0, 0, 1, 396, 22)"><g clip-path="url(#8e4bdb1681)"><g clip-path="url(#b225ebae4d)"><path fill="#ffffff" d="M 0.339844 0.695312 L 670.113281 0.695312 L 670.113281 37.710938 L 0.339844 37.710938 Z M 0.339844 0.695312 " fill-opacity="1" fill-rule="nonzero"/></g></g></g></g><g clip-path="url(#0cff1dfee2)"><g transform="matrix(1, 0, 0, 1, 396, 22)"><g clip-path="url(#d1204e3107)"><g clip-path="url(#aed503787e)"><path fill="#fcdf68" d="M 0.339844 0.695312 L 27.671875 0.695312 L 27.671875 148.355469 L 0.339844 148.355469 Z M 0.339844 0.695312 " fill-opacity="1" fill-rule="nonzero"/></g></g></g></g><g clip-path="url(#ceb39b1d8b)"><g transform="matrix(1, 0, 0, 1, 1028, 25)"><g clip-path="url(#1a20dca9da)"><g clip-path="url(#e56d484a91)"><path fill="#ffffff" d="M 0.179688 0.957031 L 38.105469 0.957031 L 38.105469 145.398438 L 0.179688 145.398438 Z M 0.179688 0.957031 " fill-opacity="1" fill-rule="nonzero"/></g></g></g></g><g clip-path="url(#eb9228a6df)"><g transform="matrix(1, 0, 0, 1, 396, 128)"><g clip-path="url(#eed6b1233e)"><g clip-path="url(#ba4fa9bd30)"><path fill="#ffffff" d="M 128.914062 0.0195312 L 128.914062 42.402344 L 0.285156 42.402344 L 0.285156 0.0195312 Z M 128.914062 0.0195312 " fill-opacity="1" fill-rule="nonzero"/></g></g></g></g><g clip-path="url(#a5bf266e45)"><g transform="matrix(1, 0, 0, 1, 937, 128)"><g clip-path="url(#2a5baba921)"><g clip-path="url(#6d040ecd1e)"><path fill="#ffffff" d="M 129.332031 0.0195312 L 129.332031 42.402344 L 0.703125 42.402344 L 0.703125 0.0195312 Z M 129.332031 0.0195312 " fill-opacity="1" fill-rule="nonzero"/></g></g></g></g><g clip-path="url(#1d3ba31d30)"><g transform="matrix(1, 0, 0, 1, 499, 67)"><g clip-path="url(#d3297cdbd4)"><g clip-path="url(#a2d9edd6de)"><path fill="#ffffff" d="M 30.277344 102.269531 L 0.0507812 102.269531 L 0.0507812 0.96875 L 30.277344 0.96875 Z M 30.277344 102.269531 " fill-opacity="1" fill-rule="nonzero"/></g></g></g></g><g clip-path="url(#74ea77b116)"><g transform="matrix(1, 0, 0, 1, 937, 69)"><g clip-path="url(#82dd7c496b)"><g clip-path="url(#a983dab4d5)"><path fill="#ffffff" d="M 30.964844 101.394531 L 0.753906 101.394531 L 0.753906 0.136719 L 30.964844 0.136719 Z M 30.964844 101.394531 " fill-opacity="1" fill-rule="nonzero"/></g></g></g></g><g clip-path="url(#cf7ef00b42)"><g transform="matrix(1, 0, 0, 1, 446, 67)"><g clip-path="url(#e05b6deee9)"><g clip-path="url(#ca7e200846)"><path fill="#ffffff" d="M 78.917969 0.960938 L 78.917969 27.914062 L 0.472656 27.914062 L 0.472656 0.960938 Z M 78.917969 0.960938 " fill-opacity="1" fill-rule="nonzero"/></g></g></g></g><g clip-path="url(#473e4cbb87)"><g transform="matrix(1, 0, 0, 1, 939, 67)"><g clip-path="url(#86589fb2e1)"><g clip-path="url(#74cfa3e457)"><path fill="#ffffff" d="M 78.675781 0.957031 L 78.675781 27.914062 L 0.234375 27.914062 L 0.234375 0.957031 Z M 78.675781 0.957031 " fill-opacity="1" fill-rule="nonzero"/></g></g></g></g><g clip-path="url(#4cae2c67d9)"><g transform="matrix(1, 0, 0, 1, 446, 73)"><g clip-path="url(#05ac0402d5)"><g clip-path="url(#7d1ced30da)"><path fill="#ffffff" d="M 0.496094 0.410156 L 36.71875 0.410156 L 36.71875 46.683594 L 0.496094 46.683594 Z M 0.496094 0.410156 " fill-opacity="1" fill-rule="nonzero"/></g></g></g></g><g clip-path="url(#e1eaa889a8)"><g transform="matrix(1, 0, 0, 1, 981, 73)"><g clip-path="url(#48211a9e6b)"><g clip-path="url(#e492cdfada)"><path fill="#ffffff" d="M 0.46875 0.410156 L 36.679688 0.410156 L 36.679688 46.667969 L 0.46875 46.667969 Z M 0.46875 0.410156 " fill-opacity="1" fill-rule="nonzero"/></g></g></g></g><g clip-path="url(#1cb3793488)"><g transform="matrix(1, 0, 0, 1, 396, 22)"><g clip-path="url(#b1bbb5f4fb)"><g clip-path="url(#c71d497a4f)"><path fill="#ffffff" d="M 0.339844 0.695312 L 38.289062 0.695312 L 38.289062 145.082031 L 0.339844 145.082031 Z M 0.339844 0.695312 " fill-opacity="1" fill-rule="nonzero"/></g></g></g></g></svg>