<svg xmlns="http://www.w3.org/2000/svg" xmlns:xlink="http://www.w3.org/1999/xlink" width="1920" zoomAndPan="magnify" viewBox="0 0 1440 809.999993" height="1080" preserveAspectRatio="xMidYMid meet" version="1.0"><defs><clipPath id="81bb9f7d8a"><path d="M 562.136719 69.085938 L 591.976562 69.085938 L 591.976562 606.75 L 562.136719 606.75 Z M 562.136719 69.085938 " clip-rule="nonzero"/></clipPath><clipPath id="a5b481ebc8"><path d="M 0.136719 0.0859375 L 29.976562 0.0859375 L 29.976562 537.75 L 0.136719 537.75 Z M 0.136719 0.0859375 " clip-rule="nonzero"/></clipPath><clipPath id="100b7f5eea"><rect x="0" width="30" y="0" height="538"/></clipPath><clipPath id="e330bf589c"><path d="M 639.339844 69.085938 L 669.179688 69.085938 L 669.179688 606.75 L 639.339844 606.75 Z M 639.339844 69.085938 " clip-rule="nonzero"/></clipPath><clipPath id="c4acb127bb"><path d="M 0.339844 0.0859375 L 30.179688 0.0859375 L 30.179688 537.75 L 0.339844 537.75 Z M 0.339844 0.0859375 " clip-rule="nonzero"/></clipPath><clipPath id="bd30084d98"><rect x="0" width="31" y="0" height="538"/></clipPath><clipPath id="37239a15d7"><path d="M 716.234375 69.085938 L 746.074219 69.085938 L 746.074219 606.75 L 716.234375 606.75 Z M 716.234375 69.085938 " clip-rule="nonzero"/></clipPath><clipPath id="3032f61ee8"><path d="M 0.234375 0.0859375 L 30.074219 0.0859375 L 30.074219 537.75 L 0.234375 537.75 Z M 0.234375 0.0859375 " clip-rule="nonzero"/></clipPath><clipPath id="3588f917f8"><rect x="0" width="31" y="0" height="538"/></clipPath><clipPath id="8bcfb06279"><path d="M 793.324219 69.085938 L 823.164062 69.085938 L 823.164062 606.75 L 793.324219 606.75 Z M 793.324219 69.085938 " clip-rule="nonzero"/></clipPath><clipPath id="c8836d2efe"><path d="M 0.324219 0.0859375 L 30.164062 0.0859375 L 30.164062 537.75 L 0.324219 537.75 Z M 0.324219 0.0859375 " clip-rule="nonzero"/></clipPath><clipPath id="c1ee4aee78"><rect x="0" width="31" y="0" height="538"/></clipPath><clipPath id="a8e3892bca"><path d="M 870.414062 69.085938 L 900.253906 69.085938 L 900.253906 606.75 L 870.414062 606.75 Z M 870.414062 69.085938 " clip-rule="nonzero"/></clipPath><clipPath id="55ffcf0aa5"><path d="M 0.414062 0.0859375 L 30.253906 0.0859375 L 30.253906 537.75 L 0.414062 537.75 Z M 0.414062 0.0859375 " clip-rule="nonzero"/></clipPath><clipPath id="ec9a1c6cc6"><rect x="0" width="31" y="0" height="538"/></clipPath><clipPath id="4b42211546"><path d="M 396.339844 22.695312 L 1066.050781 22.695312 L 1066.050781 51.792969 L 396.339844 51.792969 Z M 396.339844 22.695312 " clip-rule="nonzero"/></clipPath><clipPath id="b7db57fbf3"><path d="M 0.339844 0.695312 L 670.050781 0.695312 L 670.050781 29.792969 L 0.339844 29.792969 Z M 0.339844 0.695312 " clip-rule="nonzero"/></clipPath><clipPath id="ac8375af74"><rect x="0" width="671" y="0" height="30"/></clipPath><clipPath id="eea1c8754d"><path d="M 396.339844 22.695312 L 423.671875 22.695312 L 423.671875 170.398438 L 396.339844 170.398438 Z M 396.339844 22.695312 " clip-rule="nonzero"/></clipPath><clipPath id="3ab1643d78"><path d="M 0.339844 0.695312 L 27.671875 0.695312 L 27.671875 148.398438 L 0.339844 148.398438 Z M 0.339844 0.695312 " clip-rule="nonzero"/></clipPath><clipPath id="2f05271ee4"><rect x="0" width="28" y="0" height="149"/></clipPath><clipPath id="52846a6225"><path d="M 1039.003906 25.957031 L 1066.105469 25.957031 L 1066.105469 170.398438 L 1039.003906 170.398438 Z M 1039.003906 25.957031 " clip-rule="nonzero"/></clipPath><clipPath id="2338502b6c"><path d="M 0.00390625 0.957031 L 27.105469 0.957031 L 27.105469 145.398438 L 0.00390625 145.398438 Z M 0.00390625 0.957031 " clip-rule="nonzero"/></clipPath><clipPath id="424fb846ab"><rect x="0" width="28" y="0" height="146"/></clipPath><clipPath id="ab43fd716a"><path d="M 396.335938 144.320312 L 524.914062 144.320312 L 524.914062 170.402344 L 396.335938 170.402344 Z M 396.335938 144.320312 " clip-rule="nonzero"/></clipPath><clipPath id="7148634c91"><path d="M 0.335938 0.320312 L 128.914062 0.320312 L 128.914062 26.402344 L 0.335938 26.402344 Z M 0.335938 0.320312 " clip-rule="nonzero"/></clipPath><clipPath id="9702b2bc74"><rect x="0" width="129" y="0" height="27"/></clipPath><clipPath id="e19e11748b"><path d="M 937.753906 144.320312 L 1066.332031 144.320312 L 1066.332031 170.402344 L 937.753906 170.402344 Z M 937.753906 144.320312 " clip-rule="nonzero"/></clipPath><clipPath id="25ce2441e3"><path d="M 0.753906 0.320312 L 129.332031 0.320312 L 129.332031 26.402344 L 0.753906 26.402344 Z M 0.753906 0.320312 " clip-rule="nonzero"/></clipPath><clipPath id="ea3e1e9151"><rect x="0" width="130" y="0" height="27"/></clipPath><clipPath id="f16cb3dbea"><path d="M 498.835938 69.082031 L 524.914062 69.082031 L 524.914062 170.394531 L 498.835938 170.394531 Z M 498.835938 69.082031 " clip-rule="nonzero"/></clipPath><clipPath id="806db1ded0"><path d="M 0.835938 0.0820312 L 26.914062 0.0820312 L 26.914062 101.394531 L 0.835938 101.394531 Z M 0.835938 0.0820312 " clip-rule="nonzero"/></clipPath><clipPath id="8f1c8e2402"><rect x="0" width="27" y="0" height="102"/></clipPath><clipPath id="6daa070f7f"><path d="M 937.75 69.082031 L 963.828125 69.082031 L 963.828125 170.394531 L 937.75 170.394531 Z M 937.75 69.082031 " clip-rule="nonzero"/></clipPath><clipPath id="12e70f5108"><path d="M 0.75 0.0820312 L 26.828125 0.0820312 L 26.828125 101.394531 L 0.75 101.394531 Z M 0.75 0.0820312 " clip-rule="nonzero"/></clipPath><clipPath id="654ab38d93"><rect x="0" width="27" y="0" height="102"/></clipPath><clipPath id="a87582e0e2"><path d="M 446.492188 67.960938 L 524.914062 67.960938 L 524.914062 90.277344 L 446.492188 90.277344 Z M 446.492188 67.960938 " clip-rule="nonzero"/></clipPath><clipPath id="0126804467"><path d="M 0.492188 0.960938 L 78.914062 0.960938 L 78.914062 23.277344 L 0.492188 23.277344 Z M 0.492188 0.960938 " clip-rule="nonzero"/></clipPath><clipPath id="5a6072e427"><rect x="0" width="79" y="0" height="24"/></clipPath><clipPath id="a39424f6ae"><path d="M 937.75 67.960938 L 1016.175781 67.960938 L 1016.175781 90.277344 L 937.75 90.277344 Z M 937.75 67.960938 " clip-rule="nonzero"/></clipPath><clipPath id="377ec20860"><path d="M 0.75 0.960938 L 79.175781 0.960938 L 79.175781 23.277344 L 0.75 23.277344 Z M 0.75 0.960938 " clip-rule="nonzero"/></clipPath><clipPath id="e1d0abfaaf"><rect x="0" width="80" y="0" height="24"/></clipPath><clipPath id="dde55be85e"><path d="M 446.496094 73.410156 L 471.824219 73.410156 L 471.824219 119.679688 L 446.496094 119.679688 Z M 446.496094 73.410156 " clip-rule="nonzero"/></clipPath><clipPath id="2fa8644a0b"><path d="M 0.496094 0.410156 L 25.824219 0.410156 L 25.824219 46.679688 L 0.496094 46.679688 Z M 0.496094 0.410156 " clip-rule="nonzero"/></clipPath><clipPath id="04d2df6e8b"><rect x="0" width="26" y="0" height="47"/></clipPath><clipPath id="9a99ab8d1c"><path d="M 990.847656 73.410156 L 1016.179688 73.410156 L 1016.179688 119.679688 L 990.847656 119.679688 Z M 990.847656 73.410156 " clip-rule="nonzero"/></clipPath><clipPath id="d4cb290f11"><path d="M 0.847656 0.410156 L 26.179688 0.410156 L 26.179688 46.679688 L 0.847656 46.679688 Z M 0.847656 0.410156 " clip-rule="nonzero"/></clipPath><clipPath id="cba7d9d282"><rect x="0" width="27" y="0" height="47"/></clipPath><clipPath id="3dbf93a2f7"><path d="M 396.894531 24.324219 L 423.996094 24.324219 L 423.996094 168.769531 L 396.894531 168.769531 Z M 396.894531 24.324219 " clip-rule="nonzero"/></clipPath><clipPath id="b14509551c"><path d="M 0.894531 0.324219 L 27.996094 0.324219 L 27.996094 144.769531 L 0.894531 144.769531 Z M 0.894531 0.324219 " clip-rule="nonzero"/></clipPath><clipPath id="38c1a17587"><rect x="0" width="28" y="0" height="145"/></clipPath></defs><rect x="-144" width="1728" fill="#ffffff" y="-80.999999" height="971.999992" fill-opacity="1"/><rect x="-144" width="1728" fill="#ffffff" y="-80.999999" height="971.999992" fill-opacity="1"/><g clip-path="url(#81bb9f7d8a)"><g transform="matrix(1, 0, 0, 1, 562, 69)"><g clip-path="url(#100b7f5eea)"><g clip-path="url(#a5b481ebc8)"><path fill="#ffffff" d="M 0.136719 0.0859375 L 29.976562 0.0859375 L 29.976562 537.804688 L 0.136719 537.804688 Z M 0.136719 0.0859375 " fill-opacity="1" fill-rule="nonzero"/></g></g></g></g><g clip-path="url(#e330bf589c)"><g transform="matrix(1, 0, 0, 1, 639, 69)"><g clip-path="url(#bd30084d98)"><g clip-path="url(#c4acb127bb)"><path fill="#ffffff" d="M 0.339844 0.0859375 L 30.179688 0.0859375 L 30.179688 537.804688 L 0.339844 537.804688 Z M 0.339844 0.0859375 " fill-opacity="1" fill-rule="nonzero"/></g></g></g></g><g clip-path="url(#37239a15d7)"><g transform="matrix(1, 0, 0, 1, 716, 69)"><g clip-path="url(#3588f917f8)"><g clip-path="url(#3032f61ee8)"><path fill="#ffffff" d="M 0.234375 0.0859375 L 30.074219 0.0859375 L 30.074219 537.804688 L 0.234375 537.804688 Z M 0.234375 0.0859375 " fill-opacity="1" fill-rule="nonzero"/></g></g></g></g><g clip-path="url(#8bcfb06279)"><g transform="matrix(1, 0, 0, 1, 793, 69)"><g clip-path="url(#c1ee4aee78)"><g clip-path="url(#c8836d2efe)"><path fill="#ffffff" d="M 0.324219 0.0859375 L 30.164062 0.0859375 L 30.164062 537.804688 L 0.324219 537.804688 Z M 0.324219 0.0859375 " fill-opacity="1" fill-rule="nonzero"/></g></g></g></g><g clip-path="url(#a8e3892bca)"><g transform="matrix(1, 0, 0, 1, 870, 69)"><g clip-path="url(#ec9a1c6cc6)"><g clip-path="url(#55ffcf0aa5)"><path fill="#ffffff" d="M 0.414062 0.0859375 L 30.253906 0.0859375 L 30.253906 537.804688 L 0.414062 537.804688 Z M 0.414062 0.0859375 " fill-opacity="1" fill-rule="nonzero"/></g></g></g></g><g clip-path="url(#4b42211546)"><g transform="matrix(1, 0, 0, 1, 396, 22)"><g clip-path="url(#ac8375af74)"><g clip-path="url(#b7db57fbf3)"><path fill="#ffffff" d="M 0.339844 0.695312 L 670.042969 0.695312 L 670.042969 29.792969 L 0.339844 29.792969 Z M 0.339844 0.695312 " fill-opacity="1" fill-rule="nonzero"/></g></g></g></g><g clip-path="url(#eea1c8754d)"><g transform="matrix(1, 0, 0, 1, 396, 22)"><g clip-path="url(#2f05271ee4)"><g clip-path="url(#3ab1643d78)"><path fill="#fcdf68" d="M 0.339844 0.695312 L 27.671875 0.695312 L 27.671875 148.355469 L 0.339844 148.355469 Z M 0.339844 0.695312 " fill-opacity="1" fill-rule="nonzero"/></g></g></g></g><g clip-path="url(#52846a6225)"><g transform="matrix(1, 0, 0, 1, 1039, 25)"><g clip-path="url(#424fb846ab)"><g clip-path="url(#2338502b6c)"><path fill="#ffffff" d="M 0.00390625 0.957031 L 27.105469 0.957031 L 27.105469 145.347656 L 0.00390625 145.347656 Z M 0.00390625 0.957031 " fill-opacity="1" fill-rule="nonzero"/></g></g></g></g><g clip-path="url(#ab43fd716a)"><g transform="matrix(1, 0, 0, 1, 396, 144)"><g clip-path="url(#9702b2bc74)"><g clip-path="url(#7148634c91)"><path fill="#ffffff" d="M 128.914062 0.320312 L 128.914062 26.402344 L 0.351562 26.402344 L 0.351562 0.320312 Z M 128.914062 0.320312 " fill-opacity="1" fill-rule="nonzero"/></g></g></g></g><g clip-path="url(#e19e11748b)"><g transform="matrix(1, 0, 0, 1, 937, 144)"><g clip-path="url(#ea3e1e9151)"><g clip-path="url(#25ce2441e3)"><path fill="#ffffff" d="M 129.332031 0.320312 L 129.332031 26.402344 L 0.769531 26.402344 L 0.769531 0.320312 Z M 129.332031 0.320312 " fill-opacity="1" fill-rule="nonzero"/></g></g></g></g><g clip-path="url(#f16cb3dbea)"><g transform="matrix(1, 0, 0, 1, 498, 69)"><g clip-path="url(#8f1c8e2402)"><g clip-path="url(#806db1ded0)"><path fill="#ffffff" d="M 26.914062 101.394531 L 0.835938 101.394531 L 0.835938 0.03125 L 26.914062 0.03125 Z M 26.914062 101.394531 " fill-opacity="1" fill-rule="nonzero"/></g></g></g></g><g clip-path="url(#6daa070f7f)"><g transform="matrix(1, 0, 0, 1, 937, 69)"><g clip-path="url(#654ab38d93)"><g clip-path="url(#12e70f5108)"><path fill="#ffffff" d="M 26.828125 101.394531 L 0.75 101.394531 L 0.75 0.03125 L 26.828125 0.03125 Z M 26.828125 101.394531 " fill-opacity="1" fill-rule="nonzero"/></g></g></g></g><g clip-path="url(#a87582e0e2)"><g transform="matrix(1, 0, 0, 1, 446, 67)"><g clip-path="url(#5a6072e427)"><g clip-path="url(#0126804467)"><path fill="#ffffff" d="M 78.914062 0.960938 L 78.914062 23.277344 L 0.453125 23.277344 L 0.453125 0.960938 Z M 78.914062 0.960938 " fill-opacity="1" fill-rule="nonzero"/></g></g></g></g><g clip-path="url(#a39424f6ae)"><g transform="matrix(1, 0, 0, 1, 937, 67)"><g clip-path="url(#e1d0abfaaf)"><g clip-path="url(#377ec20860)"><path fill="#ffffff" d="M 79.175781 0.960938 L 79.175781 23.277344 L 0.714844 23.277344 L 0.714844 0.960938 Z M 79.175781 0.960938 " fill-opacity="1" fill-rule="nonzero"/></g></g></g></g><g clip-path="url(#dde55be85e)"><g transform="matrix(1, 0, 0, 1, 446, 73)"><g clip-path="url(#04d2df6e8b)"><g clip-path="url(#2fa8644a0b)"><path fill="#ffffff" d="M 0.496094 0.410156 L 25.824219 0.410156 L 25.824219 46.71875 L 0.496094 46.71875 Z M 0.496094 0.410156 " fill-opacity="1" fill-rule="nonzero"/></g></g></g></g><g clip-path="url(#9a99ab8d1c)"><g transform="matrix(1, 0, 0, 1, 990, 73)"><g clip-path="url(#cba7d9d282)"><g clip-path="url(#d4cb290f11)"><path fill="#ffffff" d="M 0.847656 0.410156 L 26.179688 0.410156 L 26.179688 46.71875 L 0.847656 46.71875 Z M 0.847656 0.410156 " fill-opacity="1" fill-rule="nonzero"/></g></g></g></g><g clip-path="url(#3dbf93a2f7)"><g transform="matrix(1, 0, 0, 1, 396, 24)"><g clip-path="url(#38c1a17587)"><g clip-path="url(#b14509551c)"><path fill="#ffffff" d="M 0.894531 0.324219 L 27.996094 0.324219 L 27.996094 144.714844 L 0.894531 144.714844 Z M 0.894531 0.324219 " fill-opacity="1" fill-rule="nonzero"/></g></g></g></g></svg>