<svg xmlns="http://www.w3.org/2000/svg" xmlns:xlink="http://www.w3.org/1999/xlink" width="1920" zoomAndPan="magnify" viewBox="0 0 1440 809.999993" height="1080" preserveAspectRatio="xMidYMid meet" version="1.0"><defs><clipPath id="54fa0749cf"><path d="M 554.777344 67.960938 L 604.980469 67.960938 L 604.980469 605.621094 L 554.777344 605.621094 Z M 554.777344 67.960938 " clip-rule="nonzero"/></clipPath><clipPath id="105a07ea64"><path d="M 0.777344 0.960938 L 50.980469 0.960938 L 50.980469 538.621094 L 0.777344 538.621094 Z M 0.777344 0.960938 " clip-rule="nonzero"/></clipPath><clipPath id="09b326a22b"><rect x="0" width="51" y="0" height="539"/></clipPath><clipPath id="85e177e4fc"><path d="M 630.855469 67.960938 L 680.75 67.960938 L 680.75 605.621094 L 630.855469 605.621094 Z M 630.855469 67.960938 " clip-rule="nonzero"/></clipPath><clipPath id="d596aca288"><path d="M 0.855469 0.960938 L 50.75 0.960938 L 50.75 538.621094 L 0.855469 538.621094 Z M 0.855469 0.960938 " clip-rule="nonzero"/></clipPath><clipPath id="f47e81e12a"><rect x="0" width="51" y="0" height="539"/></clipPath><clipPath id="7f4950f692"><path d="M 706.625 67.960938 L 756.714844 67.960938 L 756.714844 605.621094 L 706.625 605.621094 Z M 706.625 67.960938 " clip-rule="nonzero"/></clipPath><clipPath id="28fb30b0c9"><path d="M 0.625 0.960938 L 50.714844 0.960938 L 50.714844 538.621094 L 0.625 538.621094 Z M 0.625 0.960938 " clip-rule="nonzero"/></clipPath><clipPath id="d5c940a234"><rect x="0" width="51" y="0" height="539"/></clipPath><clipPath id="e1ec68f9f7"><path d="M 782.589844 67.960938 L 832.679688 67.960938 L 832.679688 605.621094 L 782.589844 605.621094 Z M 782.589844 67.960938 " clip-rule="nonzero"/></clipPath><clipPath id="70875658db"><path d="M 0.589844 0.960938 L 50.679688 0.960938 L 50.679688 538.621094 L 0.589844 538.621094 Z M 0.589844 0.960938 " clip-rule="nonzero"/></clipPath><clipPath id="37833ac179"><rect x="0" width="51" y="0" height="539"/></clipPath><clipPath id="0534e52019"><path d="M 858.554688 67.960938 L 907.894531 67.960938 L 907.894531 605.621094 L 858.554688 605.621094 Z M 858.554688 67.960938 " clip-rule="nonzero"/></clipPath><clipPath id="c47cbfaebf"><path d="M 0.554688 0.960938 L 49.894531 0.960938 L 49.894531 538.621094 L 0.554688 538.621094 Z M 0.554688 0.960938 " clip-rule="nonzero"/></clipPath><clipPath id="d13b6402d0"><rect x="0" width="50" y="0" height="539"/></clipPath><clipPath id="14222ebcce"><path d="M 396.339844 22.695312 L 1066.050781 22.695312 L 1066.050781 59.710938 L 396.339844 59.710938 Z M 396.339844 22.695312 " clip-rule="nonzero"/></clipPath><clipPath id="7f02dd23e2"><path d="M 0.339844 0.695312 L 670.050781 0.695312 L 670.050781 37.710938 L 0.339844 37.710938 Z M 0.339844 0.695312 " clip-rule="nonzero"/></clipPath><clipPath id="723541d386"><rect x="0" width="671" y="0" height="38"/></clipPath><clipPath id="0f5ecd09c9"><path d="M 396.339844 22.695312 L 423.671875 22.695312 L 423.671875 170.398438 L 396.339844 170.398438 Z M 396.339844 22.695312 " clip-rule="nonzero"/></clipPath><clipPath id="721af7f758"><path d="M 0.339844 0.695312 L 27.671875 0.695312 L 27.671875 148.398438 L 0.339844 148.398438 Z M 0.339844 0.695312 " clip-rule="nonzero"/></clipPath><clipPath id="e760de544b"><rect x="0" width="28" y="0" height="149"/></clipPath><clipPath id="c55f4d7cc9"><path d="M 1028.179688 25.957031 L 1066.105469 25.957031 L 1066.105469 170.398438 L 1028.179688 170.398438 Z M 1028.179688 25.957031 " clip-rule="nonzero"/></clipPath><clipPath id="8762b7c65d"><path d="M 0.179688 0.957031 L 38.105469 0.957031 L 38.105469 145.398438 L 0.179688 145.398438 Z M 0.179688 0.957031 " clip-rule="nonzero"/></clipPath><clipPath id="fceaf8cdcc"><rect x="0" width="39" y="0" height="146"/></clipPath><clipPath id="e3f95f0a5f"><path d="M 396.335938 128.019531 L 524.914062 128.019531 L 524.914062 170.402344 L 396.335938 170.402344 Z M 396.335938 128.019531 " clip-rule="nonzero"/></clipPath><clipPath id="e0d50c7505"><path d="M 0.335938 0.0195312 L 128.914062 0.0195312 L 128.914062 42.402344 L 0.335938 42.402344 Z M 0.335938 0.0195312 " clip-rule="nonzero"/></clipPath><clipPath id="8b83c7c483"><rect x="0" width="129" y="0" height="43"/></clipPath><clipPath id="49032cbe85"><path d="M 937.753906 128.019531 L 1066.332031 128.019531 L 1066.332031 170.402344 L 937.753906 170.402344 Z M 937.753906 128.019531 " clip-rule="nonzero"/></clipPath><clipPath id="8499f45120"><path d="M 0.753906 0.0195312 L 129.332031 0.0195312 L 129.332031 42.402344 L 0.753906 42.402344 Z M 0.753906 0.0195312 " clip-rule="nonzero"/></clipPath><clipPath id="bdac0529dc"><rect x="0" width="130" y="0" height="43"/></clipPath><clipPath id="7448be5b51"><path d="M 499.050781 67.957031 L 529.277344 67.957031 L 529.277344 169.269531 L 499.050781 169.269531 Z M 499.050781 67.957031 " clip-rule="nonzero"/></clipPath><clipPath id="fb487b8a93"><path d="M 0.0507812 0.957031 L 30.277344 0.957031 L 30.277344 102.269531 L 0.0507812 102.269531 Z M 0.0507812 0.957031 " clip-rule="nonzero"/></clipPath><clipPath id="02fcb6ca00"><rect x="0" width="31" y="0" height="103"/></clipPath><clipPath id="0007fc9e24"><path d="M 937.753906 69.082031 L 967.964844 69.082031 L 967.964844 170.394531 L 937.753906 170.394531 Z M 937.753906 69.082031 " clip-rule="nonzero"/></clipPath><clipPath id="07a59dec71"><path d="M 0.753906 0.0820312 L 30.964844 0.0820312 L 30.964844 101.394531 L 0.753906 101.394531 Z M 0.753906 0.0820312 " clip-rule="nonzero"/></clipPath><clipPath id="5831a122fa"><rect x="0" width="31" y="0" height="102"/></clipPath><clipPath id="f7b9ec4f6b"><path d="M 446.492188 67.960938 L 524.917969 67.960938 L 524.917969 94.914062 L 446.492188 94.914062 Z M 446.492188 67.960938 " clip-rule="nonzero"/></clipPath><clipPath id="6fcd604dc8"><path d="M 0.492188 0.960938 L 78.917969 0.960938 L 78.917969 27.914062 L 0.492188 27.914062 Z M 0.492188 0.960938 " clip-rule="nonzero"/></clipPath><clipPath id="590c0864b9"><rect x="0" width="79" y="0" height="28"/></clipPath><clipPath id="ab96ec21e3"><path d="M 939.226562 67.957031 L 1017.675781 67.957031 L 1017.675781 94.914062 L 939.226562 94.914062 Z M 939.226562 67.957031 " clip-rule="nonzero"/></clipPath><clipPath id="d08ee1d8f9"><path d="M 0.226562 0.957031 L 78.675781 0.957031 L 78.675781 27.914062 L 0.226562 27.914062 Z M 0.226562 0.957031 " clip-rule="nonzero"/></clipPath><clipPath id="1656a03a52"><rect x="0" width="79" y="0" height="28"/></clipPath><clipPath id="fe55b3a510"><path d="M 446.496094 73.410156 L 482.71875 73.410156 L 482.71875 119.679688 L 446.496094 119.679688 Z M 446.496094 73.410156 " clip-rule="nonzero"/></clipPath><clipPath id="5ae8cf83d7"><path d="M 0.496094 0.410156 L 36.71875 0.410156 L 36.71875 46.679688 L 0.496094 46.679688 Z M 0.496094 0.410156 " clip-rule="nonzero"/></clipPath><clipPath id="87e238577a"><rect x="0" width="37" y="0" height="47"/></clipPath><clipPath id="008a3e1e2e"><path d="M 981.46875 73.410156 L 1017.679688 73.410156 L 1017.679688 119.679688 L 981.46875 119.679688 Z M 981.46875 73.410156 " clip-rule="nonzero"/></clipPath><clipPath id="5ae3b04cef"><path d="M 0.46875 0.410156 L 36.679688 0.410156 L 36.679688 46.679688 L 0.46875 46.679688 Z M 0.46875 0.410156 " clip-rule="nonzero"/></clipPath><clipPath id="16f2a54420"><rect x="0" width="37" y="0" height="47"/></clipPath><clipPath id="65d3bd47ea"><path d="M 396.339844 22.695312 L 434.289062 22.695312 L 434.289062 167.136719 L 396.339844 167.136719 Z M 396.339844 22.695312 " clip-rule="nonzero"/></clipPath><clipPath id="c0373d5662"><path d="M 0.339844 0.695312 L 38.289062 0.695312 L 38.289062 145.136719 L 0.339844 145.136719 Z M 0.339844 0.695312 " clip-rule="nonzero"/></clipPath><clipPath id="c6de6844aa"><rect x="0" width="39" y="0" height="146"/></clipPath></defs><g clip-path="url(#54fa0749cf)"><g transform="matrix(1, 0, 0, 1, 554, 67)"><g clip-path="url(#09b326a22b)"><g clip-path="url(#105a07ea64)"><path fill="#fdb436" d="M 0.777344 0.960938 L 50.980469 0.960938 L 50.980469 538.667969 L 0.777344 538.667969 Z M 0.777344 0.960938 " fill-opacity="1" fill-rule="nonzero"/></g></g></g></g><g clip-path="url(#85e177e4fc)"><g transform="matrix(1, 0, 0, 1, 630, 67)"><g clip-path="url(#f47e81e12a)"><g clip-path="url(#d596aca288)"><path fill="#fdb436" d="M 0.855469 0.960938 L 50.75 0.960938 L 50.75 538.6875 L 0.855469 538.6875 Z M 0.855469 0.960938 " fill-opacity="1" fill-rule="nonzero"/></g></g></g></g><g clip-path="url(#7f4950f692)"><g transform="matrix(1, 0, 0, 1, 706, 67)"><g clip-path="url(#d5c940a234)"><g clip-path="url(#28fb30b0c9)"><path fill="#fdb436" d="M 0.625 0.960938 L 50.714844 0.960938 L 50.714844 538.652344 L 0.625 538.652344 Z M 0.625 0.960938 " fill-opacity="1" fill-rule="nonzero"/></g></g></g></g><g clip-path="url(#e1ec68f9f7)"><g transform="matrix(1, 0, 0, 1, 782, 67)"><g clip-path="url(#37833ac179)"><g clip-path="url(#70875658db)"><path fill="#fdb436" d="M 0.589844 0.960938 L 50.679688 0.960938 L 50.679688 538.652344 L 0.589844 538.652344 Z M 0.589844 0.960938 " fill-opacity="1" fill-rule="nonzero"/></g></g></g></g><g clip-path="url(#0534e52019)"><g transform="matrix(1, 0, 0, 1, 858, 67)"><g clip-path="url(#d13b6402d0)"><g clip-path="url(#c47cbfaebf)"><path fill="#fdb436" d="M 0.554688 0.960938 L 49.894531 0.960938 L 49.894531 538.699219 L 0.554688 538.699219 Z M 0.554688 0.960938 " fill-opacity="1" fill-rule="nonzero"/></g></g></g></g><g clip-path="url(#14222ebcce)"><g transform="matrix(1, 0, 0, 1, 396, 22)"><g clip-path="url(#723541d386)"><g clip-path="url(#7f02dd23e2)"><path fill="#fdb436" d="M 0.339844 0.695312 L 670.113281 0.695312 L 670.113281 37.710938 L 0.339844 37.710938 Z M 0.339844 0.695312 " fill-opacity="1" fill-rule="nonzero"/></g></g></g></g><g clip-path="url(#0f5ecd09c9)"><g transform="matrix(1, 0, 0, 1, 396, 22)"><g clip-path="url(#e760de544b)"><g clip-path="url(#721af7f758)"><path fill="#fcdf68" d="M 0.339844 0.695312 L 27.671875 0.695312 L 27.671875 148.355469 L 0.339844 148.355469 Z M 0.339844 0.695312 " fill-opacity="1" fill-rule="nonzero"/></g></g></g></g><g clip-path="url(#c55f4d7cc9)"><g transform="matrix(1, 0, 0, 1, 1028, 25)"><g clip-path="url(#fceaf8cdcc)"><g clip-path="url(#8762b7c65d)"><path fill="#fdb436" d="M 0.179688 0.957031 L 38.105469 0.957031 L 38.105469 145.398438 L 0.179688 145.398438 Z M 0.179688 0.957031 " fill-opacity="1" fill-rule="nonzero"/></g></g></g></g><g clip-path="url(#e3f95f0a5f)"><g transform="matrix(1, 0, 0, 1, 396, 128)"><g clip-path="url(#8b83c7c483)"><g clip-path="url(#e0d50c7505)"><path fill="#fdb436" d="M 128.914062 0.0195312 L 128.914062 42.402344 L 0.285156 42.402344 L 0.285156 0.0195312 Z M 128.914062 0.0195312 " fill-opacity="1" fill-rule="nonzero"/></g></g></g></g><g clip-path="url(#49032cbe85)"><g transform="matrix(1, 0, 0, 1, 937, 128)"><g clip-path="url(#bdac0529dc)"><g clip-path="url(#8499f45120)"><path fill="#fdb436" d="M 129.332031 0.0195312 L 129.332031 42.402344 L 0.703125 42.402344 L 0.703125 0.0195312 Z M 129.332031 0.0195312 " fill-opacity="1" fill-rule="nonzero"/></g></g></g></g><g clip-path="url(#7448be5b51)"><g transform="matrix(1, 0, 0, 1, 499, 67)"><g clip-path="url(#02fcb6ca00)"><g clip-path="url(#fb487b8a93)"><path fill="#fdb436" d="M 30.277344 102.269531 L 0.0507812 102.269531 L 0.0507812 0.96875 L 30.277344 0.96875 Z M 30.277344 102.269531 " fill-opacity="1" fill-rule="nonzero"/></g></g></g></g><g clip-path="url(#0007fc9e24)"><g transform="matrix(1, 0, 0, 1, 937, 69)"><g clip-path="url(#5831a122fa)"><g clip-path="url(#07a59dec71)"><path fill="#fdb436" d="M 30.964844 101.394531 L 0.753906 101.394531 L 0.753906 0.136719 L 30.964844 0.136719 Z M 30.964844 101.394531 " fill-opacity="1" fill-rule="nonzero"/></g></g></g></g><g clip-path="url(#f7b9ec4f6b)"><g transform="matrix(1, 0, 0, 1, 446, 67)"><g clip-path="url(#590c0864b9)"><g clip-path="url(#6fcd604dc8)"><path fill="#fdb436" d="M 78.917969 0.960938 L 78.917969 27.914062 L 0.472656 27.914062 L 0.472656 0.960938 Z M 78.917969 0.960938 " fill-opacity="1" fill-rule="nonzero"/></g></g></g></g><g clip-path="url(#ab96ec21e3)"><g transform="matrix(1, 0, 0, 1, 939, 67)"><g clip-path="url(#1656a03a52)"><g clip-path="url(#d08ee1d8f9)"><path fill="#fdb436" d="M 78.675781 0.957031 L 78.675781 27.914062 L 0.234375 27.914062 L 0.234375 0.957031 Z M 78.675781 0.957031 " fill-opacity="1" fill-rule="nonzero"/></g></g></g></g><g clip-path="url(#fe55b3a510)"><g transform="matrix(1, 0, 0, 1, 446, 73)"><g clip-path="url(#87e238577a)"><g clip-path="url(#5ae8cf83d7)"><path fill="#fdb436" d="M 0.496094 0.410156 L 36.71875 0.410156 L 36.71875 46.683594 L 0.496094 46.683594 Z M 0.496094 0.410156 " fill-opacity="1" fill-rule="nonzero"/></g></g></g></g><g clip-path="url(#008a3e1e2e)"><g transform="matrix(1, 0, 0, 1, 981, 73)"><g clip-path="url(#16f2a54420)"><g clip-path="url(#5ae3b04cef)"><path fill="#fdb436" d="M 0.46875 0.410156 L 36.679688 0.410156 L 36.679688 46.667969 L 0.46875 46.667969 Z M 0.46875 0.410156 " fill-opacity="1" fill-rule="nonzero"/></g></g></g></g><g clip-path="url(#65d3bd47ea)"><g transform="matrix(1, 0, 0, 1, 396, 22)"><g clip-path="url(#c6de6844aa)"><g clip-path="url(#c0373d5662)"><path fill="#fdb436" d="M 0.339844 0.695312 L 38.289062 0.695312 L 38.289062 145.082031 L 0.339844 145.082031 Z M 0.339844 0.695312 " fill-opacity="1" fill-rule="nonzero"/></g></g></g></g></svg>