<svg xmlns="http://www.w3.org/2000/svg" xmlns:xlink="http://www.w3.org/1999/xlink" width="1920" zoomAndPan="magnify" viewBox="0 0 1440 809.999993" height="1080" preserveAspectRatio="xMidYMid meet" version="1.0"><defs><clipPath id="c831ede76c"><path d="M 562.136719 69.085938 L 591.976562 69.085938 L 591.976562 606.75 L 562.136719 606.75 Z M 562.136719 69.085938 " clip-rule="nonzero"/></clipPath><clipPath id="8a44ef729a"><path d="M 0.136719 0.0859375 L 29.976562 0.0859375 L 29.976562 537.75 L 0.136719 537.75 Z M 0.136719 0.0859375 " clip-rule="nonzero"/></clipPath><clipPath id="240eb3292b"><rect x="0" width="30" y="0" height="538"/></clipPath><clipPath id="2216c5ab3c"><path d="M 639.339844 69.085938 L 669.179688 69.085938 L 669.179688 606.75 L 639.339844 606.75 Z M 639.339844 69.085938 " clip-rule="nonzero"/></clipPath><clipPath id="d0dfbdeae6"><path d="M 0.339844 0.0859375 L 30.179688 0.0859375 L 30.179688 537.75 L 0.339844 537.75 Z M 0.339844 0.0859375 " clip-rule="nonzero"/></clipPath><clipPath id="224f709ed0"><rect x="0" width="31" y="0" height="538"/></clipPath><clipPath id="797b884842"><path d="M 716.234375 69.085938 L 746.074219 69.085938 L 746.074219 606.75 L 716.234375 606.75 Z M 716.234375 69.085938 " clip-rule="nonzero"/></clipPath><clipPath id="ec6ba4138e"><path d="M 0.234375 0.0859375 L 30.074219 0.0859375 L 30.074219 537.75 L 0.234375 537.75 Z M 0.234375 0.0859375 " clip-rule="nonzero"/></clipPath><clipPath id="e0d27dbc2f"><rect x="0" width="31" y="0" height="538"/></clipPath><clipPath id="90151c682e"><path d="M 793.324219 69.085938 L 823.164062 69.085938 L 823.164062 606.75 L 793.324219 606.75 Z M 793.324219 69.085938 " clip-rule="nonzero"/></clipPath><clipPath id="0df73e2c7f"><path d="M 0.324219 0.0859375 L 30.164062 0.0859375 L 30.164062 537.75 L 0.324219 537.75 Z M 0.324219 0.0859375 " clip-rule="nonzero"/></clipPath><clipPath id="37b9f9d639"><rect x="0" width="31" y="0" height="538"/></clipPath><clipPath id="2efa871afc"><path d="M 870.414062 69.085938 L 900.253906 69.085938 L 900.253906 606.75 L 870.414062 606.75 Z M 870.414062 69.085938 " clip-rule="nonzero"/></clipPath><clipPath id="078857042b"><path d="M 0.414062 0.0859375 L 30.253906 0.0859375 L 30.253906 537.75 L 0.414062 537.75 Z M 0.414062 0.0859375 " clip-rule="nonzero"/></clipPath><clipPath id="71e204ca44"><rect x="0" width="31" y="0" height="538"/></clipPath><clipPath id="31525b33b7"><path d="M 396.339844 22.695312 L 1066.050781 22.695312 L 1066.050781 51.792969 L 396.339844 51.792969 Z M 396.339844 22.695312 " clip-rule="nonzero"/></clipPath><clipPath id="b4f7629678"><path d="M 0.339844 0.695312 L 670.050781 0.695312 L 670.050781 29.792969 L 0.339844 29.792969 Z M 0.339844 0.695312 " clip-rule="nonzero"/></clipPath><clipPath id="36f4c98ca0"><rect x="0" width="671" y="0" height="30"/></clipPath><clipPath id="056d36dcd7"><path d="M 396.339844 22.695312 L 423.671875 22.695312 L 423.671875 170.398438 L 396.339844 170.398438 Z M 396.339844 22.695312 " clip-rule="nonzero"/></clipPath><clipPath id="82499141b2"><path d="M 0.339844 0.695312 L 27.671875 0.695312 L 27.671875 148.398438 L 0.339844 148.398438 Z M 0.339844 0.695312 " clip-rule="nonzero"/></clipPath><clipPath id="f1e5ccb81c"><rect x="0" width="28" y="0" height="149"/></clipPath><clipPath id="3517f7ba37"><path d="M 1039.003906 25.957031 L 1066.105469 25.957031 L 1066.105469 170.398438 L 1039.003906 170.398438 Z M 1039.003906 25.957031 " clip-rule="nonzero"/></clipPath><clipPath id="ef368d5e82"><path d="M 0.00390625 0.957031 L 27.105469 0.957031 L 27.105469 145.398438 L 0.00390625 145.398438 Z M 0.00390625 0.957031 " clip-rule="nonzero"/></clipPath><clipPath id="9444afe483"><rect x="0" width="28" y="0" height="146"/></clipPath><clipPath id="87e466cdf1"><path d="M 396.335938 144.320312 L 524.914062 144.320312 L 524.914062 170.402344 L 396.335938 170.402344 Z M 396.335938 144.320312 " clip-rule="nonzero"/></clipPath><clipPath id="b934d72c29"><path d="M 0.335938 0.320312 L 128.914062 0.320312 L 128.914062 26.402344 L 0.335938 26.402344 Z M 0.335938 0.320312 " clip-rule="nonzero"/></clipPath><clipPath id="025874dbe9"><rect x="0" width="129" y="0" height="27"/></clipPath><clipPath id="1e065e0c2d"><path d="M 937.753906 144.320312 L 1066.332031 144.320312 L 1066.332031 170.402344 L 937.753906 170.402344 Z M 937.753906 144.320312 " clip-rule="nonzero"/></clipPath><clipPath id="43efb8b6b2"><path d="M 0.753906 0.320312 L 129.332031 0.320312 L 129.332031 26.402344 L 0.753906 26.402344 Z M 0.753906 0.320312 " clip-rule="nonzero"/></clipPath><clipPath id="95dc26390f"><rect x="0" width="130" y="0" height="27"/></clipPath><clipPath id="1666f1f147"><path d="M 498.835938 69.082031 L 524.914062 69.082031 L 524.914062 170.394531 L 498.835938 170.394531 Z M 498.835938 69.082031 " clip-rule="nonzero"/></clipPath><clipPath id="a91a785ad5"><path d="M 0.835938 0.0820312 L 26.914062 0.0820312 L 26.914062 101.394531 L 0.835938 101.394531 Z M 0.835938 0.0820312 " clip-rule="nonzero"/></clipPath><clipPath id="2948633485"><rect x="0" width="27" y="0" height="102"/></clipPath><clipPath id="d9eb948e80"><path d="M 937.75 69.082031 L 963.828125 69.082031 L 963.828125 170.394531 L 937.75 170.394531 Z M 937.75 69.082031 " clip-rule="nonzero"/></clipPath><clipPath id="8039cbeefd"><path d="M 0.75 0.0820312 L 26.828125 0.0820312 L 26.828125 101.394531 L 0.75 101.394531 Z M 0.75 0.0820312 " clip-rule="nonzero"/></clipPath><clipPath id="d04a008abc"><rect x="0" width="27" y="0" height="102"/></clipPath><clipPath id="50d1a29481"><path d="M 446.492188 67.960938 L 524.914062 67.960938 L 524.914062 90.277344 L 446.492188 90.277344 Z M 446.492188 67.960938 " clip-rule="nonzero"/></clipPath><clipPath id="847162c641"><path d="M 0.492188 0.960938 L 78.914062 0.960938 L 78.914062 23.277344 L 0.492188 23.277344 Z M 0.492188 0.960938 " clip-rule="nonzero"/></clipPath><clipPath id="2fdd832bcd"><rect x="0" width="79" y="0" height="24"/></clipPath><clipPath id="2bd632e45d"><path d="M 937.75 67.960938 L 1016.175781 67.960938 L 1016.175781 90.277344 L 937.75 90.277344 Z M 937.75 67.960938 " clip-rule="nonzero"/></clipPath><clipPath id="e42d591498"><path d="M 0.75 0.960938 L 79.175781 0.960938 L 79.175781 23.277344 L 0.75 23.277344 Z M 0.75 0.960938 " clip-rule="nonzero"/></clipPath><clipPath id="18dab5a14c"><rect x="0" width="80" y="0" height="24"/></clipPath><clipPath id="209dcfe0c6"><path d="M 446.496094 73.410156 L 471.824219 73.410156 L 471.824219 119.679688 L 446.496094 119.679688 Z M 446.496094 73.410156 " clip-rule="nonzero"/></clipPath><clipPath id="0b336e5cd4"><path d="M 0.496094 0.410156 L 25.824219 0.410156 L 25.824219 46.679688 L 0.496094 46.679688 Z M 0.496094 0.410156 " clip-rule="nonzero"/></clipPath><clipPath id="383d74e2ea"><rect x="0" width="26" y="0" height="47"/></clipPath><clipPath id="60acbb53aa"><path d="M 990.847656 73.410156 L 1016.179688 73.410156 L 1016.179688 119.679688 L 990.847656 119.679688 Z M 990.847656 73.410156 " clip-rule="nonzero"/></clipPath><clipPath id="3527f9e6a7"><path d="M 0.847656 0.410156 L 26.179688 0.410156 L 26.179688 46.679688 L 0.847656 46.679688 Z M 0.847656 0.410156 " clip-rule="nonzero"/></clipPath><clipPath id="20c0bb00d5"><rect x="0" width="27" y="0" height="47"/></clipPath><clipPath id="08a1849fb2"><path d="M 396.894531 24.324219 L 423.996094 24.324219 L 423.996094 168.769531 L 396.894531 168.769531 Z M 396.894531 24.324219 " clip-rule="nonzero"/></clipPath><clipPath id="364ba03ed0"><path d="M 0.894531 0.324219 L 27.996094 0.324219 L 27.996094 144.769531 L 0.894531 144.769531 Z M 0.894531 0.324219 " clip-rule="nonzero"/></clipPath><clipPath id="9dcb5f8814"><rect x="0" width="28" y="0" height="145"/></clipPath></defs><g clip-path="url(#c831ede76c)"><g transform="matrix(1, 0, 0, 1, 562, 69)"><g clip-path="url(#240eb3292b)"><g clip-path="url(#8a44ef729a)"><path fill="#ffffff" d="M 0.136719 0.0859375 L 29.976562 0.0859375 L 29.976562 537.804688 L 0.136719 537.804688 Z M 0.136719 0.0859375 " fill-opacity="1" fill-rule="nonzero"/></g></g></g></g><g clip-path="url(#2216c5ab3c)"><g transform="matrix(1, 0, 0, 1, 639, 69)"><g clip-path="url(#224f709ed0)"><g clip-path="url(#d0dfbdeae6)"><path fill="#ffffff" d="M 0.339844 0.0859375 L 30.179688 0.0859375 L 30.179688 537.804688 L 0.339844 537.804688 Z M 0.339844 0.0859375 " fill-opacity="1" fill-rule="nonzero"/></g></g></g></g><g clip-path="url(#797b884842)"><g transform="matrix(1, 0, 0, 1, 716, 69)"><g clip-path="url(#e0d27dbc2f)"><g clip-path="url(#ec6ba4138e)"><path fill="#ffffff" d="M 0.234375 0.0859375 L 30.074219 0.0859375 L 30.074219 537.804688 L 0.234375 537.804688 Z M 0.234375 0.0859375 " fill-opacity="1" fill-rule="nonzero"/></g></g></g></g><g clip-path="url(#90151c682e)"><g transform="matrix(1, 0, 0, 1, 793, 69)"><g clip-path="url(#37b9f9d639)"><g clip-path="url(#0df73e2c7f)"><path fill="#ffffff" d="M 0.324219 0.0859375 L 30.164062 0.0859375 L 30.164062 537.804688 L 0.324219 537.804688 Z M 0.324219 0.0859375 " fill-opacity="1" fill-rule="nonzero"/></g></g></g></g><g clip-path="url(#2efa871afc)"><g transform="matrix(1, 0, 0, 1, 870, 69)"><g clip-path="url(#71e204ca44)"><g clip-path="url(#078857042b)"><path fill="#ffffff" d="M 0.414062 0.0859375 L 30.253906 0.0859375 L 30.253906 537.804688 L 0.414062 537.804688 Z M 0.414062 0.0859375 " fill-opacity="1" fill-rule="nonzero"/></g></g></g></g><g clip-path="url(#31525b33b7)"><g transform="matrix(1, 0, 0, 1, 396, 22)"><g clip-path="url(#36f4c98ca0)"><g clip-path="url(#b4f7629678)"><path fill="#ffffff" d="M 0.339844 0.695312 L 670.042969 0.695312 L 670.042969 29.792969 L 0.339844 29.792969 Z M 0.339844 0.695312 " fill-opacity="1" fill-rule="nonzero"/></g></g></g></g><g clip-path="url(#056d36dcd7)"><g transform="matrix(1, 0, 0, 1, 396, 22)"><g clip-path="url(#f1e5ccb81c)"><g clip-path="url(#82499141b2)"><path fill="#fcdf68" d="M 0.339844 0.695312 L 27.671875 0.695312 L 27.671875 148.355469 L 0.339844 148.355469 Z M 0.339844 0.695312 " fill-opacity="1" fill-rule="nonzero"/></g></g></g></g><g clip-path="url(#3517f7ba37)"><g transform="matrix(1, 0, 0, 1, 1039, 25)"><g clip-path="url(#9444afe483)"><g clip-path="url(#ef368d5e82)"><path fill="#ffffff" d="M 0.00390625 0.957031 L 27.105469 0.957031 L 27.105469 145.347656 L 0.00390625 145.347656 Z M 0.00390625 0.957031 " fill-opacity="1" fill-rule="nonzero"/></g></g></g></g><g clip-path="url(#87e466cdf1)"><g transform="matrix(1, 0, 0, 1, 396, 144)"><g clip-path="url(#025874dbe9)"><g clip-path="url(#b934d72c29)"><path fill="#ffffff" d="M 128.914062 0.320312 L 128.914062 26.402344 L 0.351562 26.402344 L 0.351562 0.320312 Z M 128.914062 0.320312 " fill-opacity="1" fill-rule="nonzero"/></g></g></g></g><g clip-path="url(#1e065e0c2d)"><g transform="matrix(1, 0, 0, 1, 937, 144)"><g clip-path="url(#95dc26390f)"><g clip-path="url(#43efb8b6b2)"><path fill="#ffffff" d="M 129.332031 0.320312 L 129.332031 26.402344 L 0.769531 26.402344 L 0.769531 0.320312 Z M 129.332031 0.320312 " fill-opacity="1" fill-rule="nonzero"/></g></g></g></g><g clip-path="url(#1666f1f147)"><g transform="matrix(1, 0, 0, 1, 498, 69)"><g clip-path="url(#2948633485)"><g clip-path="url(#a91a785ad5)"><path fill="#ffffff" d="M 26.914062 101.394531 L 0.835938 101.394531 L 0.835938 0.03125 L 26.914062 0.03125 Z M 26.914062 101.394531 " fill-opacity="1" fill-rule="nonzero"/></g></g></g></g><g clip-path="url(#d9eb948e80)"><g transform="matrix(1, 0, 0, 1, 937, 69)"><g clip-path="url(#d04a008abc)"><g clip-path="url(#8039cbeefd)"><path fill="#ffffff" d="M 26.828125 101.394531 L 0.75 101.394531 L 0.75 0.03125 L 26.828125 0.03125 Z M 26.828125 101.394531 " fill-opacity="1" fill-rule="nonzero"/></g></g></g></g><g clip-path="url(#50d1a29481)"><g transform="matrix(1, 0, 0, 1, 446, 67)"><g clip-path="url(#2fdd832bcd)"><g clip-path="url(#847162c641)"><path fill="#ffffff" d="M 78.914062 0.960938 L 78.914062 23.277344 L 0.453125 23.277344 L 0.453125 0.960938 Z M 78.914062 0.960938 " fill-opacity="1" fill-rule="nonzero"/></g></g></g></g><g clip-path="url(#2bd632e45d)"><g transform="matrix(1, 0, 0, 1, 937, 67)"><g clip-path="url(#18dab5a14c)"><g clip-path="url(#e42d591498)"><path fill="#ffffff" d="M 79.175781 0.960938 L 79.175781 23.277344 L 0.714844 23.277344 L 0.714844 0.960938 Z M 79.175781 0.960938 " fill-opacity="1" fill-rule="nonzero"/></g></g></g></g><g clip-path="url(#209dcfe0c6)"><g transform="matrix(1, 0, 0, 1, 446, 73)"><g clip-path="url(#383d74e2ea)"><g clip-path="url(#0b336e5cd4)"><path fill="#ffffff" d="M 0.496094 0.410156 L 25.824219 0.410156 L 25.824219 46.71875 L 0.496094 46.71875 Z M 0.496094 0.410156 " fill-opacity="1" fill-rule="nonzero"/></g></g></g></g><g clip-path="url(#60acbb53aa)"><g transform="matrix(1, 0, 0, 1, 990, 73)"><g clip-path="url(#20c0bb00d5)"><g clip-path="url(#3527f9e6a7)"><path fill="#ffffff" d="M 0.847656 0.410156 L 26.179688 0.410156 L 26.179688 46.71875 L 0.847656 46.71875 Z M 0.847656 0.410156 " fill-opacity="1" fill-rule="nonzero"/></g></g></g></g><g clip-path="url(#08a1849fb2)"><g transform="matrix(1, 0, 0, 1, 396, 24)"><g clip-path="url(#9dcb5f8814)"><g clip-path="url(#364ba03ed0)"><path fill="#ffffff" d="M 0.894531 0.324219 L 27.996094 0.324219 L 27.996094 144.714844 L 0.894531 144.714844 Z M 0.894531 0.324219 " fill-opacity="1" fill-rule="nonzero"/></g></g></g></g></svg>